<svg width="146" height="86" viewBox="0 0 146 86" fill="none" xmlns="http://www.w3.org/2000/svg">
<path d="M144.577 37.1563C144.577 39.3945 142.726 41.2075 140.437 41.2075H4.95304C2.66491 41.2075 0.807617 39.3945 0.807617 37.1563V4.84898C0.807617 2.61181 2.66491 0.79245 4.95304 0.79245H140.436C142.726 0.79245 144.576 2.61181 144.576 4.84898L144.577 37.1563Z" fill="white"/>
<path d="M140 0.841315C142.493 0.841315 144.522 2.81925 144.522 5.25V36.75C144.522 39.1808 142.493 41.1587 140 41.1587H5.38462C2.89154 41.1587 0.862884 39.1808 0.862884 36.75V5.25C0.862884 2.81925 2.89154 0.841315 5.38462 0.841315H140ZM140 3.8147e-06H5.38462C2.42442 3.8147e-06 0 2.36382 0 5.25V36.75C0 39.6362 2.42442 42 5.38462 42H140C142.96 42 145.385 39.6362 145.385 36.75V5.25C145.385 2.36382 142.96 3.8147e-06 140 3.8147e-06Z" fill="#A6A6A6"/>
<path d="M32.4455 20.7732C32.4143 17.389 35.2875 15.7426 35.4189 15.666C33.7917 13.3528 31.2695 13.0368 30.3832 13.0116C28.2649 12.7942 26.2101 14.2474 25.1311 14.2474C24.0304 14.2474 22.3688 13.0326 20.5778 13.0683C18.2732 13.1029 16.1172 14.4039 14.9348 16.4241C12.4944 20.5432 14.3144 26.5965 16.6524 29.926C17.822 31.5567 19.1886 33.3774 20.9774 33.3133C22.7274 33.243 23.3811 32.2255 25.4929 32.2255C27.5854 32.2255 28.1992 33.3133 30.0235 33.2724C31.9017 33.243 33.0841 31.6344 34.2128 29.989C35.5643 28.12 36.1071 26.2794 36.1286 26.1849C36.0844 26.1702 32.4811 24.8293 32.4455 20.7732Z" fill="black"/>
<path d="M28.9994 10.8213C29.9406 9.67363 30.5846 8.11228 30.4058 6.52783C29.0435 6.58663 27.3398 7.44658 26.3588 8.56903C25.4908 9.55813 24.7154 11.1793 24.9157 12.7039C26.446 12.8152 28.0172 11.9511 28.9994 10.8213Z" fill="black"/>
<path d="M52.823 10.5094C52.823 11.7453 52.4429 12.6756 51.6837 13.3003C50.9804 13.8768 49.981 14.1655 48.6866 14.1655C48.0447 14.1655 47.4955 14.1382 47.0356 14.0836V7.33109C47.6355 7.23659 48.2816 7.18829 48.9795 7.18829C50.2126 7.18829 51.142 7.44974 51.7687 7.97264C52.4709 8.56379 52.823 9.40904 52.823 10.5094ZM51.633 10.5399C51.633 9.73874 51.4155 9.12449 50.9804 8.69609C50.5453 8.26874 49.91 8.05454 49.0732 8.05454C48.7178 8.05454 48.4152 8.07764 48.1643 8.12594V13.2594C48.3032 13.2804 48.5573 13.2898 48.9267 13.2898C49.7904 13.2898 50.457 13.0557 50.9266 12.5874C51.3961 12.1191 51.633 11.4366 51.633 10.5399Z" fill="black"/>
<path d="M59.1328 11.5888C59.1328 12.3501 58.9099 12.9738 58.464 13.4631C57.9966 13.966 57.3774 14.217 56.6042 14.217C55.859 14.217 55.2656 13.9765 54.823 13.4935C54.3814 13.0116 54.1606 12.4036 54.1606 11.6707C54.1606 10.9042 54.3879 10.2753 54.8445 9.78704C55.3011 9.29879 55.915 9.05414 56.6882 9.05414C57.4334 9.05414 58.0322 9.29459 58.4856 9.77654C58.9163 10.2448 59.1328 10.8496 59.1328 11.5888ZM57.9622 11.6245C57.9622 11.1678 57.861 10.7761 57.6596 10.4496C57.4226 10.0548 57.0856 9.85739 56.6473 9.85739C56.1939 9.85739 55.8493 10.0548 55.6123 10.4496C55.4099 10.7761 55.3097 11.1741 55.3097 11.6445C55.3097 12.1012 55.411 12.4929 55.6123 12.8194C55.8568 13.2142 56.1971 13.4116 56.6365 13.4116C57.0673 13.4116 57.4054 13.2111 57.6488 12.8089C57.8577 12.4761 57.9622 12.0813 57.9622 11.6245Z" fill="black"/>
<path d="M67.5932 9.15494L66.0047 14.1046H64.9709L64.3129 11.9553C64.1459 11.4187 64.0103 10.8853 63.9047 10.3561H63.8842C63.7862 10.9 63.6506 11.4324 63.4761 11.9553L62.7772 14.1046H61.7315L60.2378 9.15494H61.3976L61.9716 11.508C62.1106 12.0645 62.2247 12.5947 62.3163 13.0966H62.3367C62.4207 12.6829 62.5596 12.1558 62.7556 11.5185L63.4761 9.15599H64.3958L65.0861 11.4681C65.253 12.0319 65.3887 12.5748 65.4932 13.0977H65.5244C65.6009 12.5884 65.7161 12.0456 65.869 11.4681L66.485 9.15599H67.5932V9.15494Z" fill="black"/>
<path d="M73.444 14.1046H72.3154V11.2696C72.3154 10.396 71.975 9.95925 71.2923 9.95925C70.9574 9.95925 70.6871 10.0789 70.4771 10.3194C70.2692 10.5598 70.1637 10.8433 70.1637 11.1678V14.1036H69.0351V10.5693C69.0351 10.1346 69.0211 9.66315 68.9941 9.15285H69.986L70.0388 9.9267H70.07C70.2014 9.68625 70.3974 9.4878 70.6548 9.32925C70.9606 9.14445 71.3031 9.05099 71.6778 9.05099C72.1517 9.05099 72.5458 9.2001 72.8592 9.49935C73.249 9.8658 73.444 10.4128 73.444 11.1394V14.1046V14.1046Z" fill="black"/>
<path d="M76.5562 14.1046H75.4287V6.88379H76.5562V14.1046Z" fill="black"/>
<path d="M83.2012 11.5888C83.2012 12.3501 82.9782 12.9738 82.5324 13.4631C82.065 13.966 81.4447 14.217 80.6725 14.217C79.9262 14.217 79.3328 13.9765 78.8913 13.4935C78.4498 13.0116 78.229 12.4036 78.229 11.6707C78.229 10.9042 78.4562 10.2753 78.9129 9.78704C79.3695 9.29879 79.9833 9.05414 80.7555 9.05414C81.5018 9.05414 82.0995 9.29459 82.5539 9.77654C82.9847 10.2448 83.2012 10.8496 83.2012 11.5888ZM82.0295 11.6245C82.0295 11.1678 81.9282 10.7761 81.7268 10.4496C81.491 10.0548 81.1528 9.85739 80.7156 9.85739C80.2612 9.85739 79.9165 10.0548 79.6807 10.4496C79.4782 10.7761 79.3781 11.1741 79.3781 11.6445C79.3781 12.1012 79.4793 12.4929 79.6807 12.8194C79.9252 13.2142 80.2655 13.4116 80.7049 13.4116C81.1356 13.4116 81.4727 13.2111 81.7161 12.8089C81.9261 12.4761 82.0295 12.0813 82.0295 11.6245Z" fill="black"/>
<path d="M88.6628 14.1046H87.6494L87.5654 13.5345H87.5342C87.1874 13.9891 86.6931 14.217 86.0513 14.217C85.572 14.217 85.1844 14.0668 84.8925 13.7686C84.6276 13.4977 84.4951 13.1607 84.4951 12.7606C84.4951 12.1558 84.7536 11.6949 85.2737 11.3757C85.7928 11.0565 86.523 10.9 87.4631 10.9074V10.815C87.4631 10.1629 87.112 9.83744 86.4088 9.83744C85.908 9.83744 85.4665 9.96029 85.0853 10.2039L84.8559 9.48149C85.3276 9.19694 85.9102 9.05414 86.5973 9.05414C87.924 9.05414 88.5896 9.73664 88.5896 11.1016V12.9244C88.5896 13.419 88.6143 13.8127 88.6628 14.1046ZM87.4911 12.4036V11.6403C86.2462 11.6193 85.6237 11.9521 85.6237 12.6378C85.6237 12.8961 85.6948 13.0893 85.8402 13.2184C85.9856 13.3476 86.1708 13.4116 86.3916 13.4116C86.6393 13.4116 86.8708 13.335 87.0819 13.1827C87.294 13.0294 87.4243 12.8352 87.4728 12.5968C87.4847 12.5433 87.4911 12.4782 87.4911 12.4036Z" fill="black"/>
<path d="M95.0761 14.1046H94.0746L94.0218 13.3098H93.9906C93.6707 13.9146 93.1258 14.217 92.3601 14.217C91.7484 14.217 91.2391 13.9828 90.8352 13.5145C90.4314 13.0462 90.23 12.4383 90.23 11.6917C90.23 10.8906 90.4486 10.2417 90.888 9.74609C91.3134 9.28409 91.8346 9.05309 92.4549 9.05309C93.1366 9.05309 93.6137 9.27674 93.8851 9.72509H93.9066V6.88379H95.0363V12.7711C95.0363 13.2531 95.0492 13.6972 95.0761 14.1046ZM93.9066 12.0172V11.1919C93.9066 11.0491 93.8958 10.9336 93.8754 10.8454C93.8118 10.5808 93.6751 10.3582 93.4672 10.1787C93.2572 9.99914 93.0041 9.90884 92.7123 9.90884C92.2912 9.90884 91.9617 10.0716 91.7194 10.3981C91.4792 10.7247 91.3575 11.1415 91.3575 11.6508C91.3575 12.1401 91.4727 12.537 91.7043 12.8425C91.9487 13.168 92.2783 13.3308 92.6907 13.3308C93.0612 13.3308 93.3574 13.1953 93.5824 12.9234C93.8 12.6724 93.9066 12.37 93.9066 12.0172Z" fill="black"/>
<path d="M104.728 11.5888C104.728 12.3501 104.506 12.9738 104.06 13.4631C103.592 13.966 102.974 14.217 102.2 14.217C101.456 14.217 100.862 13.9765 100.419 13.4935C99.9771 13.0116 99.7563 12.4036 99.7563 11.6707C99.7563 10.9042 99.9836 10.2753 100.44 9.78704C100.897 9.29879 101.511 9.05414 102.285 9.05414C103.029 9.05414 103.629 9.29459 104.081 9.77654C104.512 10.2448 104.728 10.8496 104.728 11.5888ZM103.559 11.6245C103.559 11.1678 103.458 10.7761 103.256 10.4496C103.018 10.0548 102.682 9.85739 102.243 9.85739C101.791 9.85739 101.446 10.0548 101.208 10.4496C101.006 10.7761 100.905 11.1741 100.905 11.6445C100.905 12.1012 101.007 12.4929 101.208 12.8194C101.452 13.2142 101.793 13.4116 102.232 13.4116C102.663 13.4116 103.002 13.2111 103.246 12.8089C103.453 12.4761 103.559 12.0813 103.559 11.6245Z" fill="black"/>
<path d="M110.797 14.1046H109.669V11.2696C109.669 10.396 109.329 9.95925 108.645 9.95925C108.31 9.95925 108.04 10.0789 107.831 10.3194C107.622 10.5598 107.518 10.8433 107.518 11.1678V14.1036H106.388V10.5693C106.388 10.1346 106.375 9.66315 106.348 9.15285H107.339L107.392 9.9267H107.423C107.555 9.68625 107.751 9.4878 108.008 9.32925C108.315 9.14445 108.656 9.05099 109.032 9.05099C109.505 9.05099 109.899 9.2001 110.212 9.49935C110.603 9.8658 110.797 10.4128 110.797 11.1394V14.1046V14.1046Z" fill="black"/>
<path d="M118.393 9.97919H117.15V12.3837C117.15 12.9948 117.371 13.3003 117.808 13.3003C118.01 13.3003 118.178 13.2835 118.311 13.2489L118.34 14.0836C118.117 14.1655 117.824 14.2065 117.463 14.2065C117.017 14.2065 116.671 14.0742 116.42 13.8096C116.168 13.545 116.043 13.0998 116.043 12.475V9.97919H115.301V9.15494H116.043V8.24774L117.149 7.92224V9.15389H118.392V9.97919H118.393Z" fill="black"/>
<path d="M124.367 14.1046H123.238V11.2906C123.238 10.4034 122.897 9.95924 122.216 9.95924C121.692 9.95924 121.335 10.2165 121.139 10.731C121.105 10.8391 121.086 10.9714 121.086 11.1268V14.1036H119.958V6.88379H121.086V9.86684H121.108C121.463 9.32399 121.972 9.05309 122.633 9.05309C123.1 9.05309 123.487 9.20219 123.793 9.50144C124.176 9.87419 124.367 10.4286 124.367 11.1615V14.1046V14.1046Z" fill="black"/>
<path d="M130.53 11.3956C130.53 11.593 130.515 11.7589 130.488 11.8944H127.104C127.119 12.3837 127.28 12.7564 127.594 13.0147C127.88 13.2457 128.25 13.3612 128.702 13.3612C129.203 13.3612 129.659 13.2835 130.071 13.1271L130.247 13.8915C129.766 14.0952 129.199 14.197 128.544 14.197C127.757 14.197 127.138 13.9713 126.69 13.5198C126.24 13.0683 126.017 12.4624 126.017 11.7022C126.017 10.9557 126.225 10.3341 126.644 9.83848C127.081 9.30928 127.672 9.04468 128.419 9.04468C129.149 9.04468 129.703 9.30928 130.078 9.83848C130.381 10.2585 130.53 10.7782 130.53 11.3956ZM129.454 11.1111C129.462 10.7845 129.388 10.5031 129.235 10.2658C129.039 9.96028 128.741 9.80698 128.337 9.80698C127.968 9.80698 127.668 9.95608 127.439 10.2553C127.251 10.4937 127.14 10.7782 127.104 11.1111H129.454Z" fill="black"/>
<path d="M57.7716 33.0792H55.3259L53.9862 28.9747H49.3296L48.0534 33.0792H45.6724L50.2859 19.1058H53.1354L57.7716 33.0792ZM53.5824 27.2527L52.3708 23.604C52.2427 23.2312 52.0025 22.3534 51.6482 20.9716H51.6051C51.4641 21.5659 51.2368 22.4437 50.9245 23.604L49.7345 27.2527H53.5824V27.2527Z" fill="black"/>
<path d="M69.6359 27.9174C69.6359 29.631 69.161 30.9855 68.2112 31.9799C67.3604 32.865 66.3039 33.3071 65.0428 33.3071C63.6816 33.3071 62.7038 32.8304 62.1082 31.877H62.0652V37.1847H59.7692V26.3204C59.7692 25.2431 59.7401 24.1374 59.6841 23.0034H61.7033L61.8315 24.6005H61.8745C62.6402 23.3972 63.8022 22.7966 65.3616 22.7966C66.5807 22.7966 67.5984 23.2659 68.4125 24.2057C69.2289 25.1465 69.6359 26.3834 69.6359 27.9174ZM67.2969 27.9993C67.2969 27.0186 67.0707 26.2101 66.6162 25.5738C66.1198 24.9102 65.4532 24.5784 64.6175 24.5784C64.051 24.5784 63.5362 24.7632 63.0764 25.1276C62.6155 25.4951 62.3139 25.9749 62.1728 26.5692C62.1018 26.8464 62.0662 27.0732 62.0662 27.2517V28.9317C62.0662 29.6646 62.2967 30.2831 62.7576 30.7881C63.2185 31.2932 63.8173 31.5452 64.5539 31.5452C65.4187 31.5452 66.0918 31.2197 66.5732 30.5708C67.0556 29.9208 67.2969 29.064 67.2969 27.9993Z" fill="black"/>
<path d="M81.5221 27.9174C81.5221 29.631 81.0471 30.9855 80.0962 31.9799C79.2465 32.865 78.1901 33.3071 76.929 33.3071C75.5678 33.3071 74.5899 32.8304 73.9954 31.877H73.9524V37.1847H71.6564V26.3204C71.6564 25.2431 71.6273 24.1374 71.5713 23.0034H73.5905L73.7187 24.6005H73.7617C74.5264 23.3972 75.6884 22.7966 77.2488 22.7966C78.4668 22.7966 79.4845 23.2659 80.3008 24.2057C81.1139 25.1465 81.5221 26.3834 81.5221 27.9174ZM79.183 27.9993C79.183 27.0186 78.9558 26.2101 78.5013 25.5738C78.0048 24.9102 77.3404 24.5784 76.5036 24.5784C75.9361 24.5784 75.4224 24.7632 74.9614 25.1276C74.5005 25.4951 74.2001 25.9749 74.059 26.5692C73.989 26.8464 73.9524 27.0732 73.9524 27.2517V28.9317C73.9524 29.6646 74.1828 30.2831 74.6416 30.7881C75.1025 31.2921 75.7013 31.5452 76.4401 31.5452C77.3048 31.5452 77.9779 31.2197 78.4593 30.5708C78.9418 29.9208 79.183 29.064 79.183 27.9993Z" fill="black"/>
<path d="M94.811 29.1606C94.811 30.3492 94.3878 31.3162 93.5381 32.0628C92.6044 32.8786 91.3045 33.286 89.6342 33.286C88.0921 33.286 86.8558 32.9962 85.9199 32.4156L86.4519 30.5497C87.4599 31.144 88.5659 31.4422 89.771 31.4422C90.6358 31.4422 91.3089 31.2511 91.7924 30.871C92.2738 30.4909 92.5139 29.9806 92.5139 29.3443C92.5139 28.7773 92.3158 28.2996 91.9184 27.9121C91.5232 27.5247 90.863 27.1645 89.9412 26.8317C87.4319 25.9192 86.1784 24.5826 86.1784 22.8249C86.1784 21.6762 86.6178 20.7343 87.4976 20.0014C88.3742 19.2675 89.5438 18.901 91.0062 18.901C92.3104 18.901 93.3938 19.1226 94.2585 19.5646L93.6845 21.3895C92.8768 20.9611 91.9636 20.7469 90.9416 20.7469C90.1339 20.7469 89.5029 20.9412 89.0505 21.3276C88.6682 21.673 88.4765 22.0941 88.4765 22.5928C88.4765 23.1451 88.6952 23.6019 89.1345 23.961C89.5168 24.2928 90.2115 24.6519 91.2195 25.0393C92.4525 25.5234 93.3582 26.0893 93.9409 26.7382C94.5213 27.385 94.811 28.1946 94.811 29.1606Z" fill="black"/>
<path d="M102.402 24.6834H99.8717V29.5753C99.8717 30.8196 100.318 31.4412 101.211 31.4412C101.622 31.4412 101.962 31.4065 102.231 31.3372L102.295 33.0372C101.842 33.202 101.247 33.285 100.509 33.285C99.6024 33.285 98.8938 33.0151 98.3823 32.4765C97.8729 31.9368 97.6166 31.0317 97.6166 29.7601V24.6813H96.1089V23.0013H97.6166V21.1564L99.8717 20.4928V23.0013H102.402V24.6834Z" fill="black"/>
<path d="M113.821 27.9583C113.821 29.5071 113.367 30.7786 112.46 31.773C111.509 32.7967 110.247 33.307 108.674 33.307C107.157 33.307 105.95 32.8167 105.05 31.836C104.149 30.8553 103.699 29.6173 103.699 28.1253C103.699 26.5639 104.162 25.285 105.092 24.2907C106.019 23.2953 107.27 22.7976 108.844 22.7976C110.36 22.7976 111.58 23.2879 112.501 24.2697C113.382 25.222 113.821 26.4516 113.821 27.9583ZM111.439 28.0308C111.439 27.1015 111.236 26.3046 110.823 25.6399C110.342 24.8356 109.654 24.4345 108.762 24.4345C107.839 24.4345 107.138 24.8367 106.656 25.6399C106.244 26.3056 106.04 27.1152 106.04 28.0728C106.04 29.002 106.244 29.799 106.656 30.4626C107.153 31.2669 107.846 31.668 108.741 31.668C109.618 31.668 110.306 31.2585 110.803 30.4416C111.226 29.7643 111.439 28.959 111.439 28.0308Z" fill="black"/>
<path d="M121.284 24.9722C121.057 24.9312 120.815 24.9102 120.561 24.9102C119.753 24.9102 119.128 25.2074 118.689 25.8027C118.307 26.3277 118.115 26.9913 118.115 27.7925V33.0792H115.82L115.842 26.1765C115.842 25.0152 115.812 23.9579 115.755 23.0045H117.755L117.839 24.9323H117.903C118.145 24.2697 118.527 23.7363 119.051 23.3363C119.562 22.9761 120.115 22.7966 120.71 22.7966C120.922 22.7966 121.114 22.8113 121.284 22.8375V24.9722Z" fill="black"/>
<path d="M131.553 27.5646C131.553 27.9657 131.526 28.3038 131.469 28.5799H124.581C124.608 29.5753 124.94 30.3366 125.58 30.8616C126.16 31.3309 126.911 31.5661 127.833 31.5661C128.853 31.5661 129.783 31.4076 130.62 31.0894L130.98 32.6434C130.002 33.0592 128.847 33.2661 127.515 33.2661C125.913 33.2661 124.655 32.8062 123.74 31.8874C122.826 30.9687 122.369 29.7349 122.369 28.1872C122.369 26.6679 122.794 25.4026 123.646 24.3936C124.538 23.3163 125.743 22.7776 127.259 22.7776C128.748 22.7776 129.876 23.3163 130.642 24.3936C131.248 25.2493 131.553 26.3077 131.553 27.5646ZM129.363 26.9839C129.378 26.3203 129.229 25.747 128.917 25.263C128.52 24.6403 127.909 24.3295 127.088 24.3295C126.337 24.3295 125.727 24.633 125.26 25.242C124.878 25.726 124.651 26.3067 124.581 26.9829H129.363V26.9839Z" fill="black"/>
<path d="M19.3987 76.3826H15.7978V81H12.1387V76.3826H0.98736V73.769L11.0062 60.672H15.0427L5.60472 73.1882H12.2549V69.0936H15.7978V73.1882H19.3987V76.3826ZM23.8198 81.2033C23.1616 81.2033 22.6002 80.9806 22.1355 80.5354C21.6709 80.0707 21.4386 79.4899 21.4386 78.793C21.4386 78.0766 21.6612 77.4958 22.1065 77.0506C22.5711 76.6053 23.1422 76.3826 23.8198 76.3826C24.4974 76.3826 25.0589 76.6053 25.5042 77.0506C25.9688 77.4958 26.2011 78.0766 26.2011 78.793C26.2011 79.4899 25.9688 80.0707 25.5042 80.5354C25.0395 80.9806 24.4781 81.2033 23.8198 81.2033ZM37.539 68.4547C38.8748 68.4547 40.0751 68.7161 41.1399 69.2388C42.2047 69.7422 43.0372 70.4682 43.6374 71.4168C44.2375 72.3654 44.5376 73.4593 44.5376 74.6983C44.5376 76.0148 44.2085 77.1764 43.5502 78.1831C42.892 79.1705 42.0014 79.9352 40.8786 80.4773C39.7557 81.0194 38.4973 81.2904 37.1034 81.2904C34.3155 81.2904 32.1472 80.4192 30.5984 78.6768C29.069 76.9344 28.3042 74.437 28.3042 71.1845C28.3042 68.9 28.7205 66.9543 29.553 65.3474C30.3854 63.7212 31.547 62.4918 33.0378 61.6594C34.5478 60.8075 36.2902 60.3816 38.265 60.3816C39.3104 60.3816 40.2881 60.4978 41.198 60.7301C42.1273 60.943 42.9307 61.2625 43.6083 61.6884L42.2144 64.5343C41.2077 63.8761 39.9202 63.547 38.3521 63.547C36.3967 63.547 34.8673 64.1471 33.7638 65.3474C32.6602 66.5478 32.1085 68.2805 32.1085 70.5456V70.5746C32.7086 69.8777 33.4734 69.355 34.4026 69.0065C35.3319 68.6386 36.3774 68.4547 37.539 68.4547ZM36.9001 78.3283C38.081 78.3283 39.0394 78.0186 39.775 77.399C40.5107 76.7602 40.8786 75.918 40.8786 74.8726C40.8786 73.8078 40.5107 72.9656 39.775 72.3461C39.0394 71.7266 38.052 71.4168 36.813 71.4168C35.5933 71.4168 34.5962 71.7459 33.8218 72.4042C33.0668 73.0624 32.6893 73.8949 32.6893 74.9016C32.6893 75.889 33.0571 76.7118 33.7928 77.37C34.5478 78.0089 35.5836 78.3283 36.9001 78.3283Z" fill="#3C3C3C"/>
<path d="M52.2847 78.0534C52.2847 77.4949 52.4094 76.996 52.6588 76.5568C52.9136 76.1122 53.258 75.7679 53.6917 75.5239C54.1309 75.2745 54.6216 75.1498 55.1639 75.1498C55.7983 75.1498 56.354 75.3124 56.8312 75.6378C57.3084 75.9631 57.6418 76.4131 57.8316 76.9879H56.5221C56.392 76.7168 56.2076 76.5134 55.9691 76.3779C55.7359 76.2423 55.4648 76.1746 55.1557 76.1746C54.825 76.1746 54.5295 76.2532 54.2692 76.4104C54.0144 76.5622 53.8137 76.7791 53.6673 77.0611C53.5264 77.343 53.4559 77.6738 53.4559 78.0534C53.4559 78.4275 53.5264 78.7582 53.6673 79.0456C53.8137 79.3276 54.0144 79.5472 54.2692 79.7044C54.5295 79.8562 54.825 79.9322 55.1557 79.9322C55.4648 79.9322 55.7359 79.8644 55.9691 79.7288C56.2076 79.5878 56.392 79.3818 56.5221 79.1107H57.8316C57.6418 79.6909 57.3084 80.1436 56.8312 80.469C56.3595 80.7889 55.8037 80.9488 55.1639 80.9488C54.6216 80.9488 54.1309 80.8268 53.6917 80.5828C53.258 80.3334 52.9136 79.9891 52.6588 79.5499C52.4094 79.1107 52.2847 78.6118 52.2847 78.0534ZM59.9428 74.8814V80.9H58.8042V74.8814H59.9428ZM60.775 78.6308C60.775 78.1754 60.8645 77.7714 61.0434 77.419C61.2278 77.0665 61.4745 76.7954 61.7836 76.6056C62.0981 76.4158 62.4478 76.321 62.8328 76.321C63.169 76.321 63.4618 76.3887 63.7112 76.5243C63.966 76.6598 64.1694 76.8306 64.3212 77.0367V76.3942H65.468V80.9H64.3212V80.2412C64.1748 80.4527 63.9714 80.6289 63.7112 80.7699C63.4563 80.9054 63.1608 80.9732 62.8246 80.9732C62.4451 80.9732 62.0981 80.8756 61.7836 80.6804C61.4745 80.4852 61.2278 80.2114 61.0434 79.859C60.8645 79.5011 60.775 79.0917 60.775 78.6308ZM64.3212 78.6471C64.3212 78.3706 64.267 78.1347 64.1585 77.9395C64.0501 77.7389 63.9037 77.587 63.7193 77.484C63.535 77.3756 63.337 77.3214 63.1256 77.3214C62.9141 77.3214 62.7189 77.3729 62.54 77.4759C62.361 77.5789 62.2146 77.7307 62.1008 77.9314C61.9923 78.1266 61.9381 78.3597 61.9381 78.6308C61.9381 78.9019 61.9923 79.1405 62.1008 79.3466C62.2146 79.5472 62.361 79.7017 62.54 79.8102C62.7243 79.9186 62.9195 79.9728 63.1256 79.9728C63.337 79.9728 63.535 79.9213 63.7193 79.8183C63.9037 79.7098 64.0501 79.558 64.1585 79.3628C64.267 79.1622 64.3212 78.9236 64.3212 78.6471ZM68.3043 80.9732C67.9356 80.9732 67.6049 80.9082 67.3121 80.778C67.0193 80.6425 66.7861 80.4608 66.6126 80.2331C66.4445 80.0054 66.3523 79.7532 66.3361 79.4767H67.4829C67.5046 79.6502 67.5886 79.7939 67.735 79.9078C67.8868 80.0216 68.0739 80.0786 68.2962 80.0786C68.5131 80.0786 68.6812 80.0352 68.8005 79.9484C68.9252 79.8617 68.9875 79.7505 68.9875 79.615C68.9875 79.4686 68.9116 79.3601 68.7598 79.2896C68.6134 79.2137 68.3775 79.1324 68.0522 79.0456C67.716 78.9643 67.4395 78.8802 67.2226 78.7935C67.0111 78.7067 66.8268 78.5739 66.6695 78.395C66.5177 78.216 66.4418 77.9747 66.4418 77.6711C66.4418 77.4217 66.5123 77.1939 66.6533 76.9879C66.7997 76.7818 67.0057 76.6192 67.2714 76.4999C67.5425 76.3806 67.8597 76.321 68.223 76.321C68.7598 76.321 69.1882 76.4565 69.5081 76.7276C69.828 76.9933 70.0042 77.3539 70.0367 77.8094H68.9469C68.9306 77.6304 68.8547 77.4894 68.7191 77.3864C68.589 77.278 68.4128 77.2238 68.1905 77.2238C67.9844 77.2238 67.8245 77.2617 67.7106 77.3376C67.6022 77.4135 67.5479 77.5193 67.5479 77.6548C67.5479 77.8066 67.6239 77.9232 67.7757 78.0046C67.9275 78.0805 68.1634 78.1591 68.4833 78.2404C68.8086 78.3218 69.077 78.4058 69.2885 78.4926C69.4999 78.5793 69.6816 78.7149 69.8334 78.8992C69.9907 79.0782 70.072 79.3167 70.0774 79.615C70.0774 79.8752 70.0042 80.1084 69.8578 80.3144C69.7168 80.5205 69.5108 80.6831 69.2397 80.8024C68.974 80.9163 68.6622 80.9732 68.3043 80.9732ZM72.7364 80.9732C72.3677 80.9732 72.0369 80.9082 71.7441 80.778C71.4513 80.6425 71.2182 80.4608 71.0446 80.2331C70.8766 80.0054 70.7844 79.7532 70.7681 79.4767H71.9149C71.9366 79.6502 72.0206 79.7939 72.167 79.9078C72.3189 80.0216 72.5059 80.0786 72.7282 80.0786C72.9451 80.0786 73.1132 80.0352 73.2325 79.9484C73.3572 79.8617 73.4196 79.7505 73.4196 79.615C73.4196 79.4686 73.3437 79.3601 73.1918 79.2896C73.0454 79.2137 72.8096 79.1324 72.4842 79.0456C72.1481 78.9643 71.8715 78.8802 71.6546 78.7935C71.4432 78.7067 71.2588 78.5739 71.1016 78.395C70.9498 78.216 70.8738 77.9747 70.8738 77.6711C70.8738 77.4217 70.9443 77.1939 71.0853 76.9879C71.2317 76.7818 71.4378 76.6192 71.7034 76.4999C71.9746 76.3806 72.2918 76.321 72.655 76.321C73.1918 76.321 73.6202 76.4565 73.9401 76.7276C74.26 76.9933 74.4362 77.3539 74.4688 77.8094H73.3789C73.3626 77.6304 73.2867 77.4894 73.1512 77.3864C73.021 77.278 72.8448 77.2238 72.6225 77.2238C72.4165 77.2238 72.2565 77.2617 72.1426 77.3376C72.0342 77.4135 71.98 77.5193 71.98 77.6548C71.98 77.8066 72.0559 77.9232 72.2077 78.0046C72.3595 78.0805 72.5954 78.1591 72.9153 78.2404C73.2406 78.3218 73.509 78.4058 73.7205 78.4926C73.932 78.5793 74.1136 78.7149 74.2654 78.8992C74.4227 79.0782 74.504 79.3167 74.5094 79.615C74.5094 79.8752 74.4362 80.1084 74.2898 80.3144C74.1489 80.5205 73.9428 80.6831 73.6717 80.8024C73.406 80.9163 73.0942 80.9732 72.7364 80.9732ZM76.0216 75.8574C75.821 75.8574 75.6529 75.795 75.5173 75.6703C75.3872 75.5402 75.3221 75.3802 75.3221 75.1904C75.3221 75.0006 75.3872 74.8434 75.5173 74.7187C75.6529 74.5886 75.821 74.5235 76.0216 74.5235C76.2222 74.5235 76.3876 74.5886 76.5177 74.7187C76.6533 74.8434 76.7211 75.0006 76.7211 75.1904C76.7211 75.3802 76.6533 75.5402 76.5177 75.6703C76.3876 75.795 76.2222 75.8574 76.0216 75.8574ZM76.5828 76.3942V80.9H75.4441V76.3942H76.5828ZM79.7737 77.3295H78.9847V80.9H77.8298V77.3295H77.3174V76.3942H77.8298V76.1664C77.8298 75.6134 77.9871 75.2067 78.3015 74.9464C78.616 74.6862 79.0905 74.5642 79.7249 74.5804V75.5402C79.4483 75.5347 79.2559 75.5808 79.1474 75.6784C79.039 75.776 78.9847 75.9522 78.9847 76.2071V76.3942H79.7737V77.3295ZM81.0891 75.8574C80.8884 75.8574 80.7203 75.795 80.5848 75.6703C80.4547 75.5402 80.3896 75.3802 80.3896 75.1904C80.3896 75.0006 80.4547 74.8434 80.5848 74.7187C80.7203 74.5886 80.8884 74.5235 81.0891 74.5235C81.2897 74.5235 81.4551 74.5886 81.5852 74.7187C81.7207 74.8434 81.7885 75.0006 81.7885 75.1904C81.7885 75.3802 81.7207 75.5402 81.5852 75.6703C81.4551 75.795 81.2897 75.8574 81.0891 75.8574ZM81.6503 76.3942V80.9H80.5116V76.3942H81.6503ZM82.4825 78.6471C82.4825 78.1808 82.5774 77.7741 82.7671 77.4271C82.9569 77.0746 83.2199 76.8035 83.5561 76.6138C83.8922 76.4186 84.2772 76.321 84.711 76.321C85.2695 76.321 85.7304 76.4619 86.0937 76.7439C86.4624 77.0204 86.7091 77.4108 86.8338 77.9151H85.6057C85.5406 77.7199 85.4294 77.5681 85.2722 77.4596C85.1204 77.3458 84.9306 77.2888 84.7029 77.2888C84.3775 77.2888 84.12 77.4081 83.9302 77.6467C83.7404 77.8798 83.6455 78.2133 83.6455 78.6471C83.6455 79.0754 83.7404 79.4089 83.9302 79.6475C84.12 79.8806 84.3775 79.9972 84.7029 79.9972C85.1638 79.9972 85.4647 79.7912 85.6057 79.3791H86.8338C86.7091 79.8671 86.4624 80.2548 86.0937 80.5422C85.725 80.8295 85.2641 80.9732 84.711 80.9732C84.2772 80.9732 83.8922 80.8783 83.5561 80.6886C83.2199 80.4934 82.9569 80.2222 82.7671 79.8752C82.5774 79.5228 82.4825 79.1134 82.4825 78.6471ZM87.3752 78.6308C87.3752 78.1754 87.4646 77.7714 87.6436 77.419C87.8279 77.0665 88.0746 76.7954 88.3837 76.6056C88.6982 76.4158 89.0479 76.321 89.4329 76.321C89.7691 76.321 90.0619 76.3887 90.3113 76.5243C90.5661 76.6598 90.7695 76.8306 90.9213 77.0367V76.3942H92.0681V80.9H90.9213V80.2412C90.7749 80.4527 90.5716 80.6289 90.3113 80.7699C90.0565 80.9054 89.7609 80.9732 89.4248 80.9732C89.0452 80.9732 88.6982 80.8756 88.3837 80.6804C88.0746 80.4852 87.8279 80.2114 87.6436 79.859C87.4646 79.5011 87.3752 79.0917 87.3752 78.6308ZM90.9213 78.6471C90.9213 78.3706 90.8671 78.1347 90.7586 77.9395C90.6502 77.7389 90.5038 77.587 90.3194 77.484C90.1351 77.3756 89.9372 77.3214 89.7257 77.3214C89.5142 77.3214 89.319 77.3729 89.1401 77.4759C88.9612 77.5789 88.8148 77.7307 88.7009 77.9314C88.5925 78.1266 88.5382 78.3597 88.5382 78.6308C88.5382 78.9019 88.5925 79.1405 88.7009 79.3466C88.8148 79.5472 88.9612 79.7017 89.1401 79.8102C89.3245 79.9186 89.5197 79.9728 89.7257 79.9728C89.9372 79.9728 90.1351 79.9213 90.3194 79.8183C90.5038 79.7098 90.6502 79.558 90.7586 79.3628C90.8671 79.1622 90.9213 78.9236 90.9213 78.6471ZM95.1078 79.9972C95.5687 79.9972 95.8696 79.7912 96.0106 79.3791H97.2387C97.1249 79.8183 96.9134 80.1762 96.6043 80.4527C96.3007 80.7292 95.9184 80.8946 95.4575 80.9488V81.266C95.7558 81.266 96.0052 81.3419 96.2058 81.4938C96.4119 81.6456 96.5149 81.8652 96.5149 82.1526C96.5149 82.4454 96.4091 82.6704 96.1977 82.8276C95.9916 82.9849 95.7368 83.0635 95.4331 83.0635H94.2782V82.3966H95.2461C95.3762 82.3966 95.4738 82.3776 95.5389 82.3396C95.6094 82.3017 95.6446 82.2339 95.6446 82.1363C95.6446 82.0387 95.6094 81.9709 95.5389 81.933C95.4738 81.9004 95.3762 81.8842 95.2461 81.8842H94.7418V80.9488C94.3731 80.8946 94.0478 80.7672 93.7658 80.5666C93.4893 80.3605 93.2724 80.0948 93.1151 79.7695C92.9633 79.4387 92.8874 79.0646 92.8874 78.6471C92.8874 78.1808 92.9823 77.7741 93.1721 77.4271C93.3619 77.0746 93.6248 76.8035 93.961 76.6138C94.2972 76.4186 94.6822 76.321 95.1159 76.321C95.6744 76.321 96.1353 76.4619 96.4986 76.7439C96.8673 77.0204 97.114 77.4108 97.2387 77.9151H96.0106C95.9455 77.7199 95.8344 77.5681 95.6771 77.4596C95.5253 77.3458 95.3355 77.2888 95.1078 77.2888C94.7825 77.2888 94.5249 77.4081 94.3351 77.6467C94.1454 77.8798 94.0505 78.2133 94.0505 78.6471C94.0505 79.0754 94.1454 79.4089 94.3351 79.6475C94.5249 79.8806 94.7825 79.9972 95.1078 79.9972ZM100.074 80.9732C99.6399 80.9732 99.2495 80.8783 98.9025 80.6886C98.5555 80.4934 98.2817 80.2195 98.0811 79.8671C97.8859 79.5146 97.7883 79.108 97.7883 78.6471C97.7883 78.1862 97.8886 77.7795 98.0892 77.4271C98.2952 77.0746 98.5745 76.8035 98.9269 76.6138C99.2794 76.4186 99.6725 76.321 100.106 76.321C100.54 76.321 100.933 76.4186 101.286 76.6138C101.638 76.8035 101.915 77.0746 102.115 77.4271C102.321 77.7795 102.424 78.1862 102.424 78.6471C102.424 79.108 102.319 79.5146 102.107 79.8671C101.901 80.2195 101.619 80.4934 101.261 80.6886C100.909 80.8783 100.513 80.9732 100.074 80.9732ZM100.074 79.981C100.28 79.981 100.472 79.9322 100.651 79.8346C100.836 79.7315 100.982 79.5797 101.09 79.3791C101.199 79.1785 101.253 78.9345 101.253 78.6471C101.253 78.2187 101.139 77.8907 100.911 77.663C100.689 77.4298 100.415 77.3132 100.09 77.3132C99.7647 77.3132 99.4908 77.4298 99.2685 77.663C99.0516 77.8907 98.9432 78.2187 98.9432 78.6471C98.9432 79.0754 99.0489 79.4062 99.2604 79.6394C99.4773 79.8671 99.7484 79.981 100.074 79.981ZM98.6911 75.9062C98.7399 75.5483 98.851 75.2826 99.0245 75.1091C99.2035 74.9302 99.4285 74.8407 99.6996 74.8407C99.8135 74.8407 99.9138 74.8597 100.001 74.8976C100.087 74.9302 100.185 74.979 100.293 75.044C100.456 75.147 100.592 75.1986 100.7 75.1986C100.901 75.1986 101.017 75.082 101.05 74.8488H101.66C101.611 75.2067 101.497 75.4751 101.318 75.654C101.145 75.8275 100.922 75.9143 100.651 75.9143C100.537 75.9143 100.437 75.898 100.35 75.8655C100.263 75.8275 100.166 75.776 100.057 75.711C99.9002 75.6025 99.7647 75.5483 99.6508 75.5483C99.4502 75.5483 99.3309 75.6676 99.2929 75.9062H98.6911ZM107.448 78.5495C107.448 78.7122 107.437 78.8586 107.416 78.9887H104.122C104.149 79.314 104.263 79.5689 104.463 79.7532C104.664 79.9376 104.911 80.0298 105.203 80.0298C105.626 80.0298 105.927 79.8481 106.106 79.4848H107.334C107.204 79.9186 106.955 80.2765 106.586 80.5584C106.217 80.835 105.765 80.9732 105.228 80.9732C104.794 80.9732 104.404 80.8783 104.057 80.6886C103.715 80.4934 103.447 80.2195 103.251 79.8671C103.062 79.5146 102.967 79.108 102.967 78.6471C102.967 78.1808 103.062 77.7714 103.251 77.419C103.441 77.0665 103.707 76.7954 104.048 76.6056C104.39 76.4158 104.783 76.321 105.228 76.321C105.656 76.321 106.038 76.4131 106.375 76.5975C106.716 76.7818 106.979 77.0448 107.164 77.3864C107.353 77.7226 107.448 78.1103 107.448 78.5495ZM106.269 78.2242C106.263 77.9314 106.158 77.6982 105.952 77.5247C105.746 77.3458 105.493 77.2563 105.195 77.2563C104.913 77.2563 104.675 77.343 104.48 77.5166C104.29 77.6846 104.173 77.9205 104.13 78.2242H106.269ZM110.004 80.9732C109.635 80.9732 109.304 80.9082 109.011 80.778C108.718 80.6425 108.485 80.4608 108.312 80.2331C108.144 80.0054 108.052 79.7532 108.035 79.4767H109.182C109.204 79.6502 109.288 79.7939 109.434 79.9078C109.586 80.0216 109.773 80.0786 109.995 80.0786C110.212 80.0786 110.38 80.0352 110.5 79.9484C110.624 79.8617 110.687 79.7505 110.687 79.615C110.687 79.4686 110.611 79.3601 110.459 79.2896C110.313 79.2137 110.077 79.1324 109.751 79.0456C109.415 78.9643 109.139 78.8802 108.922 78.7935C108.71 78.7067 108.526 78.5739 108.369 78.395C108.217 78.216 108.141 77.9747 108.141 77.6711C108.141 77.4217 108.212 77.1939 108.352 76.9879C108.499 76.7818 108.705 76.6192 108.971 76.4999C109.242 76.3806 109.559 76.321 109.922 76.321C110.459 76.321 110.887 76.4565 111.207 76.7276C111.527 76.9933 111.703 77.3539 111.736 77.8094H110.646C110.63 77.6304 110.554 77.4894 110.418 77.3864C110.288 77.278 110.112 77.2238 109.89 77.2238C109.684 77.2238 109.524 77.2617 109.41 77.3376C109.301 77.4135 109.247 77.5193 109.247 77.6548C109.247 77.8066 109.323 77.9232 109.475 78.0046C109.627 78.0805 109.863 78.1591 110.182 78.2404C110.508 78.3218 110.776 78.4058 110.988 78.4926C111.199 78.5793 111.381 78.7149 111.533 78.8992C111.69 79.0782 111.771 79.3167 111.777 79.615C111.777 79.8752 111.703 80.1084 111.557 80.3144C111.416 80.5205 111.21 80.6831 110.939 80.8024C110.673 80.9163 110.361 80.9732 110.004 80.9732Z" fill="#3C3C3C"/>
<path d="M56 67.0845L53.6529 68.8653C53.5366 68.9598 53.4098 69.0046 53.2723 68.9996C53.1349 68.9945 53.0133 68.955 52.9076 68.881C52.8018 68.8075 52.72 68.7077 52.6621 68.5816C52.6041 68.4555 52.6014 68.319 52.6538 68.1719L53.5578 65.2564L51.2583 63.6332C51.1314 63.5492 51.0521 63.4389 51.0204 63.3023C50.9887 63.1657 50.994 63.0396 51.0362 62.9241C51.0785 62.8085 51.1525 62.7059 51.2583 62.6164C51.364 62.5269 51.4909 62.4824 51.6389 62.4828H54.4776L55.3974 59.457C55.4502 59.3099 55.5323 59.1969 55.6435 59.1179C55.7547 59.0389 55.8736 58.9996 56 59C56.1269 59 56.2459 59.0395 56.3571 59.1185C56.4684 59.1975 56.5502 59.3104 56.6026 59.457L57.5224 62.4828H60.3611C60.5091 62.4828 60.636 62.5276 60.7417 62.6171C60.8475 62.7066 60.9215 62.8089 60.9638 62.9241C61.006 63.0396 61.0113 63.1657 60.9796 63.3023C60.9479 63.4389 60.8686 63.5492 60.7417 63.6332L58.4422 65.2564L59.3462 68.1719C59.399 68.319 59.3965 68.4555 59.3386 68.5816C59.2806 68.7077 59.1986 68.8075 59.0924 68.881C58.9867 68.9546 58.8651 68.9941 58.7277 68.9996C58.5902 69.005 58.4634 68.9603 58.3471 68.8653L56 67.0845Z" fill="#F5C82A"/>
<path d="M69 67.0845L66.6529 68.8653C66.5366 68.9598 66.4098 69.0046 66.2723 68.9996C66.1349 68.9945 66.0133 68.955 65.9076 68.881C65.8018 68.8075 65.72 68.7077 65.6621 68.5816C65.6041 68.4555 65.6014 68.319 65.6538 68.1719L66.5578 65.2564L64.2583 63.6332C64.1314 63.5492 64.0521 63.4389 64.0204 63.3023C63.9887 63.1657 63.994 63.0396 64.0362 62.9241C64.0785 62.8085 64.1525 62.7059 64.2583 62.6164C64.364 62.5269 64.4909 62.4824 64.6389 62.4828H67.4776L68.3974 59.457C68.4502 59.3099 68.5323 59.1969 68.6435 59.1179C68.7547 59.0389 68.8736 58.9996 69 59C69.1269 59 69.2459 59.0395 69.3571 59.1185C69.4684 59.1975 69.5502 59.3104 69.6026 59.457L70.5224 62.4828H73.3611C73.5091 62.4828 73.636 62.5276 73.7417 62.6171C73.8475 62.7066 73.9215 62.8089 73.9638 62.9241C74.006 63.0396 74.0113 63.1657 73.9796 63.3023C73.9479 63.4389 73.8686 63.5492 73.7417 63.6332L71.4422 65.2564L72.3462 68.1719C72.399 68.319 72.3965 68.4555 72.3386 68.5816C72.2806 68.7077 72.1986 68.8075 72.0924 68.881C71.9867 68.9546 71.8651 68.9941 71.7277 68.9996C71.5902 69.005 71.4634 68.9603 71.3471 68.8653L69 67.0845Z" fill="#F5C82A"/>
<path d="M82 67.0845L79.6529 68.8653C79.5366 68.9598 79.4098 69.0046 79.2723 68.9996C79.1349 68.9945 79.0133 68.955 78.9076 68.881C78.8018 68.8075 78.72 68.7077 78.6621 68.5816C78.6041 68.4555 78.6014 68.319 78.6538 68.1719L79.5578 65.2564L77.2583 63.6332C77.1314 63.5492 77.0521 63.4389 77.0204 63.3023C76.9887 63.1657 76.994 63.0396 77.0362 62.9241C77.0785 62.8085 77.1525 62.7059 77.2583 62.6164C77.364 62.5269 77.4909 62.4824 77.6389 62.4828H80.4776L81.3974 59.457C81.4502 59.3099 81.5323 59.1969 81.6435 59.1179C81.7547 59.0389 81.8736 58.9996 82 59C82.1269 59 82.2459 59.0395 82.3571 59.1185C82.4684 59.1975 82.5502 59.3104 82.6026 59.457L83.5224 62.4828H86.3611C86.5091 62.4828 86.636 62.5276 86.7417 62.6171C86.8475 62.7066 86.9215 62.8089 86.9638 62.9241C87.006 63.0396 87.0113 63.1657 86.9796 63.3023C86.9479 63.4389 86.8686 63.5492 86.7417 63.6332L84.4422 65.2564L85.3462 68.1719C85.399 68.319 85.3965 68.4555 85.3386 68.5816C85.2806 68.7077 85.1986 68.8075 85.0924 68.881C84.9867 68.9546 84.8651 68.9941 84.7277 68.9996C84.5902 69.005 84.4634 68.9603 84.3471 68.8653L82 67.0845Z" fill="#F5C82A"/>
<path d="M95 67.0845L92.6529 68.8653C92.5366 68.9598 92.4098 69.0046 92.2723 68.9996C92.1349 68.9945 92.0133 68.955 91.9076 68.881C91.8018 68.8075 91.72 68.7077 91.6621 68.5816C91.6041 68.4555 91.6014 68.319 91.6538 68.1719L92.5578 65.2564L90.2583 63.6332C90.1314 63.5492 90.0521 63.4389 90.0204 63.3023C89.9887 63.1657 89.994 63.0396 90.0362 62.9241C90.0785 62.8085 90.1525 62.7059 90.2583 62.6164C90.364 62.5269 90.4909 62.4824 90.6389 62.4828H93.4776L94.3974 59.457C94.4502 59.3099 94.5323 59.1969 94.6435 59.1179C94.7547 59.0389 94.8736 58.9996 95 59C95.1269 59 95.2459 59.0395 95.3571 59.1185C95.4684 59.1975 95.5502 59.3104 95.6026 59.457L96.5224 62.4828H99.3611C99.5091 62.4828 99.636 62.5276 99.7417 62.6171C99.8475 62.7066 99.9215 62.8089 99.9638 62.9241C100.006 63.0396 100.011 63.1657 99.9796 63.3023C99.9479 63.4389 99.8686 63.5492 99.7417 63.6332L97.4422 65.2564L98.3462 68.1719C98.399 68.319 98.3965 68.4555 98.3386 68.5816C98.2806 68.7077 98.1986 68.8075 98.0924 68.881C97.9867 68.9546 97.8651 68.9941 97.7277 68.9996C97.5902 69.005 97.4634 68.9603 97.3471 68.8653L95 67.0845Z" fill="#F5C82A"/>
<path d="M112.468 62.3469L109.641 62.0903L108.537 59.3712C108.338 58.8763 107.66 58.8763 107.462 59.3712L106.357 62.0964L103.536 62.3469C103.022 62.3897 102.811 63.0618 103.203 63.4162L105.347 65.3593L104.704 68.2434C104.587 68.7688 105.131 69.1843 105.575 68.9033L107.999 67.3757L110.424 68.9094C110.868 69.1904 111.411 68.775 111.294 68.2495L110.652 65.3593L112.796 63.4162C113.187 63.0618 112.983 62.3897 112.468 62.3469ZM107.999 66.2331V60.5505L108.998 63.019L111.557 63.2512L109.617 65.011L110.202 67.6262L107.999 66.2331Z" fill="#F5C82A"/>
</svg>
