<svg width="60" height="60" viewBox="0 0 60 60" fill="none" xmlns="http://www.w3.org/2000/svg">
<g clip-path="url(#clip0_305_10)">
<path d="M30 60C46.5685 60 60 46.5685 60 30C60 13.4315 46.5685 0 30 0C13.4315 0 0 13.4315 0 30C0 46.5685 13.4315 60 30 60Z" fill="#9A3CEB" fill-opacity="0.2"/>
<g clip-path="url(#clip1_305_10)">
<path d="M29.7284 16.625C30.1214 16.6254 30.4993 16.7759 30.785 17.0456C31.0708 17.3154 31.2427 17.6841 31.2657 18.0763C31.2888 18.4686 31.1611 18.8548 30.9089 19.1562C30.6567 19.4575 30.299 19.6511 29.9088 19.6975L29.7284 19.7083H21.2493V41.2917H36.6659V31.2708C36.6664 30.8779 36.8168 30.4999 37.0866 30.2142C37.3563 29.9285 37.725 29.7566 38.1173 29.7335C38.5095 29.7105 38.8958 29.8381 39.1971 30.0903C39.4984 30.3425 39.6921 30.7003 39.7385 31.0905L39.7493 31.2708V41.2917H42.8326C43.2255 41.2921 43.6035 41.4426 43.8892 41.7123C44.1749 41.9821 44.3469 42.3507 44.3699 42.743C44.3929 43.1352 44.2653 43.5215 44.0131 43.8228C43.7609 44.1241 43.4032 44.3178 43.013 44.3642L42.8326 44.375H18.1659C17.773 44.3746 17.3951 44.2241 17.1093 43.9544C16.8236 43.6846 16.6517 43.3159 16.6286 42.9237C16.6056 42.5314 16.7332 42.1452 16.9854 41.8438C17.2376 41.5425 17.5954 41.3489 17.9856 41.3025L18.1659 41.2917V19.7083C18.1657 18.9304 18.4595 18.1812 18.9884 17.6108C19.5173 17.0404 20.2423 16.6911 21.018 16.6327L21.2493 16.625H29.7284ZM32.8118 28.9583C33.1154 28.9583 33.4162 29.0181 33.6967 29.1344C33.9773 29.2506 34.2322 29.4209 34.447 29.6356C34.6617 29.8504 34.832 30.1053 34.9482 30.3859C35.0645 30.6664 35.1243 30.9672 35.1243 31.2708C35.1243 31.5745 35.0645 31.8752 34.9482 32.1558C34.832 32.4364 34.6617 32.6913 34.447 32.906C34.2322 33.1208 33.9773 33.2911 33.6967 33.4073C33.4162 33.5235 33.1154 33.5833 32.8118 33.5833C32.1985 33.5833 31.6103 33.3397 31.1766 32.906C30.7429 32.4723 30.4993 31.8841 30.4993 31.2708C30.4993 30.6575 30.7429 30.0693 31.1766 29.6356C31.6103 29.202 32.1985 28.9583 32.8118 28.9583ZM36.3468 18.4318C36.6242 18.1553 36.9965 17.9948 37.388 17.9829C37.7795 17.9709 38.1609 18.1084 38.4547 18.3675C38.7485 18.6265 38.9327 18.9877 38.9698 19.3776C39.0069 19.7675 38.8943 20.157 38.6547 20.4668L38.5267 20.6117L37.89 21.2469H42.8326C43.2279 21.2438 43.6094 21.3927 43.8981 21.6628C44.1868 21.9329 44.3606 22.3036 44.3838 22.6982C44.407 23.0929 44.2776 23.4814 44.0225 23.7834C43.7674 24.0854 43.406 24.2779 43.013 24.321L42.8326 24.3303H37.8869L38.5283 24.9731C38.8042 25.2508 38.9642 25.6231 38.9758 26.0144C38.9873 26.4058 38.8495 26.7868 38.5904 27.0803C38.3313 27.3738 37.9702 27.5577 37.5804 27.5947C37.1907 27.6316 36.8014 27.5189 36.4917 27.2795L36.3453 27.1515L33.0769 23.8785C32.8117 23.6129 32.6526 23.2596 32.6293 22.8849C32.606 22.5103 32.7202 22.14 32.9505 21.8435L33.0785 21.6986L36.3468 18.4318Z" fill="#9A3CEB"/>
</g>
</g>
<defs>
<clipPath id="clip0_305_10">
<rect width="60" height="60" fill="white"/>
</clipPath>
<clipPath id="clip1_305_10">
<rect width="37" height="37" fill="white" transform="translate(12 12)"/>
</clipPath>
</defs>
</svg>
