<svg width="149" height="86" viewBox="0 0 149 86" fill="none" xmlns="http://www.w3.org/2000/svg">
<path d="M143.333 43H5.51282C2.48215 43 0 40.5799 0 37.625V5.37501C0 2.4201 2.48215 7.62939e-06 5.51282 7.62939e-06H143.333C146.364 7.62939e-06 148.846 2.4201 148.846 5.37501V37.625C148.846 40.5799 146.364 43 143.333 43Z" fill="white"/>
<path d="M143.333 0.86135C145.886 0.86135 147.963 2.88638 147.963 5.37501V37.625C147.963 40.1136 145.886 42.1387 143.333 42.1387H5.51282C2.96038 42.1387 0.883429 40.1136 0.883429 37.625V5.37501C0.883429 2.88638 2.96038 0.86135 5.51282 0.86135H143.333ZM143.333 7.62939e-06H5.51282C2.48215 7.62939e-06 0 2.4201 0 5.37501V37.625C0 40.5799 2.48215 43 5.51282 43H143.333C146.364 43 148.846 40.5799 148.846 37.625V5.37501C148.846 2.4201 146.364 7.62939e-06 143.333 7.62939e-06Z" fill="#A6A6A6"/>
<path d="M11.5055 8.10416C11.1816 8.43472 10.9941 8.94938 10.9941 9.61588V33.3895C10.9941 34.056 11.1816 34.5707 11.5055 34.9012L11.5854 34.9738L25.2489 21.6572V21.3428L11.5854 8.02623L11.5055 8.10416Z" fill="url(#paint0_linear_19_80)"/>
<path d="M29.7985 26.0983L25.249 21.6572V21.3428L29.804 16.9017L29.906 16.9595L35.3003 19.952C36.8397 20.8012 36.8397 22.1987 35.3003 23.0534L29.906 26.0405L29.7985 26.0983V26.0983Z" fill="url(#paint1_linear_19_80)"/>
<path d="M29.9058 26.0405L25.2488 21.5L11.5054 34.9012C12.0167 35.4253 12.8505 35.4884 13.7987 34.9644L29.9058 26.0405" fill="url(#paint2_linear_19_80)"/>
<path d="M29.9058 16.9595L13.7987 8.03563C12.8505 7.51694 12.0167 7.5801 11.5054 8.10416L25.2488 21.5L29.9058 16.9595Z" fill="url(#paint3_linear_19_80)"/>
<path d="M52.2813 11.012C52.2813 11.9097 52.0056 12.6286 51.4626 13.1647C50.8383 13.8003 50.0252 14.1201 49.0287 14.1201C48.0764 14.1201 47.2632 13.7949 46.5962 13.154C45.9278 12.5036 45.5942 11.7054 45.5942 10.75C45.5942 9.7946 45.9278 8.99641 46.5962 8.35141C47.2632 7.70507 48.0764 7.37988 49.0287 7.37988C49.5028 7.37988 49.9549 7.47529 50.3863 7.65266C50.8163 7.83138 51.1663 8.07326 51.4199 8.37157L50.8438 8.93863C50.4014 8.42935 49.7991 8.17807 49.0287 8.17807C48.3341 8.17807 47.7318 8.41457 47.2205 8.8916C46.7147 9.36998 46.4611 9.98944 46.4611 10.75C46.4611 11.5106 46.7147 12.1354 47.2205 12.6138C47.7318 13.0854 48.3341 13.3273 49.0287 13.3273C49.7661 13.3273 50.3863 13.0854 50.8755 12.6084C51.198 12.2926 51.3813 11.8573 51.4296 11.3009H49.0287V10.5243H52.2317C52.2703 10.6922 52.2813 10.8548 52.2813 11.012V11.012Z" fill="black" stroke="black" stroke-width="0.0441026" stroke-miterlimit="10"/>
<path d="M57.3628 8.31915H54.3542V10.3616H57.0665V11.1383H54.3542V13.1808H57.3628V13.9723H53.5024V7.52768H57.3628V8.31915Z" fill="black" stroke="black" stroke-width="0.0441026" stroke-miterlimit="10"/>
<path d="M60.9486 13.9723H60.0969V8.31915H58.2515V7.52768H62.7954V8.31915H60.9486V13.9723V13.9723Z" fill="black" stroke="black" stroke-width="0.0441026" stroke-miterlimit="10"/>
<path d="M66.084 13.9723V7.52768H66.9343V13.9723H66.084Z" fill="black" stroke="black" stroke-width="0.0441026" stroke-miterlimit="10"/>
<path d="M70.7035 13.9723H69.8586V8.31915H68.0063V7.52768H72.5558V8.31915H70.7035V13.9723Z" fill="black" stroke="black" stroke-width="0.0441026" stroke-miterlimit="10"/>
<path d="M81.1587 13.1432C80.5068 13.7949 79.6992 14.1201 78.7358 14.1201C77.7669 14.1201 76.9593 13.7949 76.3074 13.1432C75.6569 12.4929 75.333 11.6947 75.333 10.75C75.333 9.80535 75.6569 9.00716 76.3074 8.35679C76.9593 7.70507 77.7669 7.37988 78.7358 7.37988C79.6936 7.37988 80.5013 7.70507 81.1532 8.36216C81.8092 9.01791 82.1331 9.81073 82.1331 10.75C82.1331 11.6947 81.8092 12.4929 81.1587 13.1432ZM76.9372 12.603C77.4279 13.0854 78.0246 13.3273 78.7358 13.3273C79.4414 13.3273 80.0437 13.0854 80.5288 12.603C81.0181 12.1206 81.2662 11.5012 81.2662 10.75C81.2662 9.99885 81.0181 9.37938 80.5288 8.89698C80.0437 8.41457 79.4414 8.1727 78.7358 8.1727C78.0246 8.1727 77.4279 8.41457 76.9372 8.89698C76.448 9.37938 76.1999 9.99885 76.1999 10.75C76.1999 11.5012 76.448 12.1206 76.9372 12.603V12.603Z" fill="black" stroke="black" stroke-width="0.0441026" stroke-miterlimit="10"/>
<path d="M83.3281 13.9723V7.52768H84.3618L87.5757 12.5399H87.613L87.5757 11.3009V7.52768H88.4261V13.9723H87.5385L84.173 8.71287H84.1358L84.173 9.95718V13.9723H83.3281V13.9723Z" fill="black" stroke="black" stroke-width="0.0441026" stroke-miterlimit="10"/>
<path d="M75.1235 23.384C72.5338 23.384 70.4183 25.3055 70.4183 27.9567C70.4183 30.5865 72.5338 32.5282 75.1235 32.5282C77.7186 32.5282 79.8342 30.5865 79.8342 27.9567C79.8342 25.3055 77.7186 23.384 75.1235 23.384ZM75.1235 30.7276C73.7025 30.7276 72.4801 29.584 72.4801 27.9567C72.4801 26.308 73.7025 25.1846 75.1235 25.1846C76.5444 25.1846 77.7724 26.308 77.7724 27.9567C77.7724 29.584 76.5444 30.7276 75.1235 30.7276V30.7276ZM64.8572 23.384C62.2621 23.384 60.152 25.3055 60.152 27.9567C60.152 30.5865 62.2621 32.5282 64.8572 32.5282C67.451 32.5282 69.5624 30.5865 69.5624 27.9567C69.5624 25.3055 67.451 23.384 64.8572 23.384ZM64.8572 30.7276C63.4349 30.7276 62.2083 29.584 62.2083 27.9567C62.2083 26.308 63.4349 25.1846 64.8572 25.1846C66.2782 25.1846 67.5006 26.308 67.5006 27.9567C67.5006 29.584 66.2782 30.7276 64.8572 30.7276ZM52.6408 24.7855V26.7286H57.3998C57.2606 27.8143 56.8884 28.6125 56.3179 29.1688C55.6233 29.8407 54.5414 30.5865 52.6408 30.5865C49.7121 30.5865 47.4188 28.2819 47.4188 25.4265C47.4188 22.571 49.7121 20.2665 52.6408 20.2665C54.2244 20.2665 55.3766 20.8698 56.2269 21.6519L57.6313 20.2826C56.4419 19.1753 54.8597 18.3247 52.6408 18.3247C48.6247 18.3247 45.2495 21.5108 45.2495 25.4265C45.2495 29.3421 48.6247 32.5282 52.6408 32.5282C54.8115 32.5282 56.4419 31.8348 57.7236 30.5341C59.0371 29.2535 59.4464 27.4528 59.4464 25.9989C59.4464 25.5474 59.4078 25.1322 59.3389 24.7855H52.6408ZM102.595 26.2918C102.208 25.2692 101.013 23.384 98.5791 23.384C96.1673 23.384 94.1592 25.237 94.1592 27.9567C94.1592 30.5179 96.1466 32.5282 98.8107 32.5282C100.965 32.5282 102.208 31.2476 102.719 30.5018L101.121 29.4631C100.587 30.2236 99.8609 30.7276 98.8107 30.7276C97.7674 30.7276 97.019 30.2613 96.5394 29.3421L102.812 26.8119L102.595 26.2918V26.2918ZM96.2004 27.8143C96.1466 26.0513 97.6047 25.1483 98.6494 25.1483C99.4681 25.1483 100.163 25.5474 100.394 26.1185L96.2004 27.8143V27.8143ZM91.1024 32.25H93.1642V18.8125H91.1024V32.25ZM87.7258 24.4025H87.6569C87.1938 23.8677 86.3104 23.384 85.1913 23.384C82.8428 23.384 80.6956 25.3942 80.6956 27.9715C80.6956 30.5341 82.8428 32.5282 85.1913 32.5282C86.3104 32.5282 87.1938 32.0404 87.6569 31.4895H87.7258V32.1452C87.7258 33.8934 86.7679 34.8327 85.223 34.8327C83.9633 34.8327 83.1818 33.9458 82.8593 33.2001L81.0663 33.9297C81.5831 35.1418 82.9517 36.6333 85.223 36.6333C87.6403 36.6333 89.6801 35.2466 89.6801 31.8724V23.6621H87.7258V24.4025V24.4025ZM85.3677 30.7276C83.9467 30.7276 82.7573 29.5679 82.7573 27.9715C82.7573 26.3604 83.9467 25.1846 85.3677 25.1846C86.7679 25.1846 87.8719 26.3604 87.8719 27.9715C87.8719 29.5679 86.7679 30.7276 85.3677 30.7276V30.7276ZM112.248 18.8125H107.317V32.25H109.373V27.1586H112.248C114.532 27.1586 116.771 25.5474 116.771 22.9849C116.771 20.4237 114.526 18.8125 112.248 18.8125V18.8125ZM112.302 25.2894H109.373V20.6817H112.302C113.837 20.6817 114.714 21.9246 114.714 22.9849C114.714 24.0249 113.837 25.2894 112.302 25.2894ZM125.013 23.3584C123.527 23.3584 121.982 23.9981 121.347 25.4157L123.172 26.1615C123.565 25.4157 124.287 25.1738 125.05 25.1738C126.117 25.1738 127.199 25.7987 127.215 26.9019V27.043C126.843 26.8334 126.047 26.523 125.067 26.523C123.102 26.523 121.099 27.5778 121.099 29.5464C121.099 31.347 122.709 32.5067 124.518 32.5067C125.902 32.5067 126.666 31.898 127.145 31.1898H127.215V32.2285H129.201V27.0739C129.201 24.6914 127.377 23.3584 125.013 23.3584ZM124.765 30.7222C124.092 30.7222 123.155 30.397 123.155 29.584C123.155 28.544 124.324 28.1449 125.336 28.1449C126.241 28.1449 126.666 28.3397 127.215 28.5964C127.054 29.8407 125.956 30.7222 124.765 30.7222V30.7222ZM136.437 23.6527L134.073 29.4779H134.003L131.56 23.6527H129.342L133.014 31.7931L130.919 36.3229H133.067L138.725 23.6527H136.437V23.6527ZM117.902 32.25H119.963V18.8125H117.902V32.25Z" fill="black"/>
<path d="M19.3987 76.3826H15.7978V81H12.1387V76.3826H0.98736V73.769L11.0062 60.672H15.0427L5.60472 73.1882H12.2549V69.0936H15.7978V73.1882H19.3987V76.3826ZM23.8198 81.2033C23.1616 81.2033 22.6002 80.9806 22.1355 80.5354C21.6709 80.0707 21.4386 79.4899 21.4386 78.793C21.4386 78.0766 21.6612 77.4958 22.1065 77.0506C22.5711 76.6053 23.1422 76.3826 23.8198 76.3826C24.4974 76.3826 25.0589 76.6053 25.5042 77.0506C25.9688 77.4958 26.2011 78.0766 26.2011 78.793C26.2011 79.4899 25.9688 80.0707 25.5042 80.5354C25.0395 80.9806 24.4781 81.2033 23.8198 81.2033ZM42.1123 70.3133C43.1771 70.7973 43.9902 71.4555 44.5517 72.288C45.1325 73.1011 45.4229 74.0594 45.4229 75.163C45.4229 76.402 45.0744 77.4862 44.3774 78.4154C43.6998 79.3447 42.7318 80.061 41.4734 80.5644C40.215 81.0484 38.7534 81.2904 37.0884 81.2904C35.4234 81.2904 33.9618 81.0484 32.7034 80.5644C31.4643 80.061 30.506 79.3447 29.8284 78.4154C29.1508 77.4862 28.812 76.402 28.812 75.163C28.812 74.0594 29.0927 73.1011 29.6542 72.288C30.2156 71.4555 31.019 70.7973 32.0645 70.3133C31.2514 69.868 30.6222 69.2872 30.1769 68.5709C29.751 67.8352 29.538 66.993 29.538 66.0444C29.538 64.9022 29.8478 63.9051 30.4673 63.0533C31.1062 62.2014 31.9967 61.5432 33.139 61.0786C34.2812 60.6139 35.5977 60.3816 37.0884 60.3816C38.5985 60.3816 39.9246 60.6139 41.0669 61.0786C42.2091 61.5432 43.0997 62.2014 43.7386 63.0533C44.3774 63.9051 44.6969 64.9022 44.6969 66.0444C44.6969 66.993 44.4742 67.8255 44.029 68.5418C43.5837 69.2582 42.9448 69.8486 42.1123 70.3133ZM37.0884 63.3437C35.9074 63.3437 34.9685 63.5954 34.2715 64.0987C33.5939 64.6021 33.2551 65.3087 33.2551 66.2186C33.2551 67.0898 33.5939 67.7868 34.2715 68.3095C34.9685 68.8129 35.9074 69.0646 37.0884 69.0646C38.2887 69.0646 39.2374 68.8129 39.9343 68.3095C40.6313 67.7868 40.9798 67.0898 40.9798 66.2186C40.9798 65.3087 40.6216 64.6021 39.9053 64.0987C39.2083 63.5954 38.2694 63.3437 37.0884 63.3437ZM37.0884 78.3283C38.4823 78.3283 39.5858 78.0379 40.399 77.4571C41.2121 76.8763 41.6186 76.0729 41.6186 75.0468C41.6186 74.0401 41.2121 73.2463 40.399 72.6655C39.5858 72.0847 38.4823 71.7943 37.0884 71.7943C35.6945 71.7943 34.6006 72.0847 33.8069 72.6655C33.0131 73.2463 32.6162 74.0401 32.6162 75.0468C32.6162 76.0729 33.0131 76.8763 33.8069 77.4571C34.6006 78.0379 35.6945 78.3283 37.0884 78.3283Z" fill="#3C3C3C"/>
<path d="M52.2847 78.0534C52.2847 77.4949 52.4094 76.996 52.6588 76.5568C52.9136 76.1122 53.258 75.7679 53.6917 75.5239C54.1309 75.2745 54.6216 75.1498 55.1639 75.1498C55.7983 75.1498 56.354 75.3124 56.8312 75.6378C57.3084 75.9631 57.6418 76.4131 57.8316 76.9879H56.5221C56.392 76.7168 56.2076 76.5134 55.9691 76.3779C55.7359 76.2423 55.4648 76.1746 55.1557 76.1746C54.825 76.1746 54.5295 76.2532 54.2692 76.4104C54.0144 76.5622 53.8137 76.7791 53.6673 77.0611C53.5264 77.343 53.4559 77.6738 53.4559 78.0534C53.4559 78.4275 53.5264 78.7582 53.6673 79.0456C53.8137 79.3276 54.0144 79.5472 54.2692 79.7044C54.5295 79.8562 54.825 79.9322 55.1557 79.9322C55.4648 79.9322 55.7359 79.8644 55.9691 79.7288C56.2076 79.5878 56.392 79.3818 56.5221 79.1107H57.8316C57.6418 79.6909 57.3084 80.1436 56.8312 80.469C56.3595 80.7889 55.8037 80.9488 55.1639 80.9488C54.6216 80.9488 54.1309 80.8268 53.6917 80.5828C53.258 80.3334 52.9136 79.9891 52.6588 79.5499C52.4094 79.1107 52.2847 78.6118 52.2847 78.0534ZM59.9428 74.8814V80.9H58.8042V74.8814H59.9428ZM60.775 78.6308C60.775 78.1754 60.8645 77.7714 61.0434 77.419C61.2278 77.0665 61.4745 76.7954 61.7836 76.6056C62.0981 76.4158 62.4478 76.321 62.8328 76.321C63.169 76.321 63.4618 76.3887 63.7112 76.5243C63.966 76.6598 64.1694 76.8306 64.3212 77.0367V76.3942H65.468V80.9H64.3212V80.2412C64.1748 80.4527 63.9714 80.6289 63.7112 80.7699C63.4563 80.9054 63.1608 80.9732 62.8246 80.9732C62.4451 80.9732 62.0981 80.8756 61.7836 80.6804C61.4745 80.4852 61.2278 80.2114 61.0434 79.859C60.8645 79.5011 60.775 79.0917 60.775 78.6308ZM64.3212 78.6471C64.3212 78.3706 64.267 78.1347 64.1585 77.9395C64.0501 77.7389 63.9037 77.587 63.7193 77.484C63.535 77.3756 63.337 77.3214 63.1256 77.3214C62.9141 77.3214 62.7189 77.3729 62.54 77.4759C62.361 77.5789 62.2146 77.7307 62.1008 77.9314C61.9923 78.1266 61.9381 78.3597 61.9381 78.6308C61.9381 78.9019 61.9923 79.1405 62.1008 79.3466C62.2146 79.5472 62.361 79.7017 62.54 79.8102C62.7243 79.9186 62.9195 79.9728 63.1256 79.9728C63.337 79.9728 63.535 79.9213 63.7193 79.8183C63.9037 79.7098 64.0501 79.558 64.1585 79.3628C64.267 79.1622 64.3212 78.9236 64.3212 78.6471ZM68.3043 80.9732C67.9356 80.9732 67.6049 80.9082 67.3121 80.778C67.0193 80.6425 66.7861 80.4608 66.6126 80.2331C66.4445 80.0054 66.3523 79.7532 66.3361 79.4767H67.4829C67.5046 79.6502 67.5886 79.7939 67.735 79.9078C67.8868 80.0216 68.0739 80.0786 68.2962 80.0786C68.5131 80.0786 68.6812 80.0352 68.8005 79.9484C68.9252 79.8617 68.9875 79.7505 68.9875 79.615C68.9875 79.4686 68.9116 79.3601 68.7598 79.2896C68.6134 79.2137 68.3775 79.1324 68.0522 79.0456C67.716 78.9643 67.4395 78.8802 67.2226 78.7935C67.0111 78.7067 66.8268 78.5739 66.6695 78.395C66.5177 78.216 66.4418 77.9747 66.4418 77.6711C66.4418 77.4217 66.5123 77.1939 66.6533 76.9879C66.7997 76.7818 67.0057 76.6192 67.2714 76.4999C67.5425 76.3806 67.8597 76.321 68.223 76.321C68.7598 76.321 69.1882 76.4565 69.5081 76.7276C69.828 76.9933 70.0042 77.3539 70.0367 77.8094H68.9469C68.9306 77.6304 68.8547 77.4894 68.7191 77.3864C68.589 77.278 68.4128 77.2238 68.1905 77.2238C67.9844 77.2238 67.8245 77.2617 67.7106 77.3376C67.6022 77.4135 67.5479 77.5193 67.5479 77.6548C67.5479 77.8066 67.6239 77.9232 67.7757 78.0046C67.9275 78.0805 68.1634 78.1591 68.4833 78.2404C68.8086 78.3218 69.077 78.4058 69.2885 78.4926C69.4999 78.5793 69.6816 78.7149 69.8334 78.8992C69.9907 79.0782 70.072 79.3167 70.0774 79.615C70.0774 79.8752 70.0042 80.1084 69.8578 80.3144C69.7168 80.5205 69.5108 80.6831 69.2397 80.8024C68.974 80.9163 68.6622 80.9732 68.3043 80.9732ZM72.7364 80.9732C72.3677 80.9732 72.0369 80.9082 71.7441 80.778C71.4513 80.6425 71.2182 80.4608 71.0446 80.2331C70.8766 80.0054 70.7844 79.7532 70.7681 79.4767H71.9149C71.9366 79.6502 72.0206 79.7939 72.167 79.9078C72.3189 80.0216 72.5059 80.0786 72.7282 80.0786C72.9451 80.0786 73.1132 80.0352 73.2325 79.9484C73.3572 79.8617 73.4196 79.7505 73.4196 79.615C73.4196 79.4686 73.3437 79.3601 73.1918 79.2896C73.0454 79.2137 72.8096 79.1324 72.4842 79.0456C72.1481 78.9643 71.8715 78.8802 71.6546 78.7935C71.4432 78.7067 71.2588 78.5739 71.1016 78.395C70.9498 78.216 70.8738 77.9747 70.8738 77.6711C70.8738 77.4217 70.9443 77.1939 71.0853 76.9879C71.2317 76.7818 71.4378 76.6192 71.7034 76.4999C71.9746 76.3806 72.2918 76.321 72.655 76.321C73.1918 76.321 73.6202 76.4565 73.9401 76.7276C74.26 76.9933 74.4362 77.3539 74.4688 77.8094H73.3789C73.3626 77.6304 73.2867 77.4894 73.1512 77.3864C73.021 77.278 72.8448 77.2238 72.6225 77.2238C72.4165 77.2238 72.2565 77.2617 72.1426 77.3376C72.0342 77.4135 71.98 77.5193 71.98 77.6548C71.98 77.8066 72.0559 77.9232 72.2077 78.0046C72.3595 78.0805 72.5954 78.1591 72.9153 78.2404C73.2406 78.3218 73.509 78.4058 73.7205 78.4926C73.932 78.5793 74.1136 78.7149 74.2654 78.8992C74.4227 79.0782 74.504 79.3167 74.5094 79.615C74.5094 79.8752 74.4362 80.1084 74.2898 80.3144C74.1489 80.5205 73.9428 80.6831 73.6717 80.8024C73.406 80.9163 73.0942 80.9732 72.7364 80.9732ZM76.0216 75.8574C75.821 75.8574 75.6529 75.795 75.5173 75.6703C75.3872 75.5402 75.3221 75.3802 75.3221 75.1904C75.3221 75.0006 75.3872 74.8434 75.5173 74.7187C75.6529 74.5886 75.821 74.5235 76.0216 74.5235C76.2222 74.5235 76.3876 74.5886 76.5177 74.7187C76.6533 74.8434 76.7211 75.0006 76.7211 75.1904C76.7211 75.3802 76.6533 75.5402 76.5177 75.6703C76.3876 75.795 76.2222 75.8574 76.0216 75.8574ZM76.5828 76.3942V80.9H75.4441V76.3942H76.5828ZM79.7737 77.3295H78.9847V80.9H77.8298V77.3295H77.3174V76.3942H77.8298V76.1664C77.8298 75.6134 77.9871 75.2067 78.3015 74.9464C78.616 74.6862 79.0905 74.5642 79.7249 74.5804V75.5402C79.4483 75.5347 79.2559 75.5808 79.1474 75.6784C79.039 75.776 78.9847 75.9522 78.9847 76.2071V76.3942H79.7737V77.3295ZM81.0891 75.8574C80.8884 75.8574 80.7203 75.795 80.5848 75.6703C80.4547 75.5402 80.3896 75.3802 80.3896 75.1904C80.3896 75.0006 80.4547 74.8434 80.5848 74.7187C80.7203 74.5886 80.8884 74.5235 81.0891 74.5235C81.2897 74.5235 81.4551 74.5886 81.5852 74.7187C81.7207 74.8434 81.7885 75.0006 81.7885 75.1904C81.7885 75.3802 81.7207 75.5402 81.5852 75.6703C81.4551 75.795 81.2897 75.8574 81.0891 75.8574ZM81.6503 76.3942V80.9H80.5116V76.3942H81.6503ZM82.4825 78.6471C82.4825 78.1808 82.5774 77.7741 82.7671 77.4271C82.9569 77.0746 83.2199 76.8035 83.5561 76.6138C83.8922 76.4186 84.2772 76.321 84.711 76.321C85.2695 76.321 85.7304 76.4619 86.0937 76.7439C86.4624 77.0204 86.7091 77.4108 86.8338 77.9151H85.6057C85.5406 77.7199 85.4294 77.5681 85.2722 77.4596C85.1204 77.3458 84.9306 77.2888 84.7029 77.2888C84.3775 77.2888 84.12 77.4081 83.9302 77.6467C83.7404 77.8798 83.6455 78.2133 83.6455 78.6471C83.6455 79.0754 83.7404 79.4089 83.9302 79.6475C84.12 79.8806 84.3775 79.9972 84.7029 79.9972C85.1638 79.9972 85.4647 79.7912 85.6057 79.3791H86.8338C86.7091 79.8671 86.4624 80.2548 86.0937 80.5422C85.725 80.8295 85.2641 80.9732 84.711 80.9732C84.2772 80.9732 83.8922 80.8783 83.5561 80.6886C83.2199 80.4934 82.9569 80.2222 82.7671 79.8752C82.5774 79.5228 82.4825 79.1134 82.4825 78.6471ZM87.3752 78.6308C87.3752 78.1754 87.4646 77.7714 87.6436 77.419C87.8279 77.0665 88.0746 76.7954 88.3837 76.6056C88.6982 76.4158 89.0479 76.321 89.4329 76.321C89.7691 76.321 90.0619 76.3887 90.3113 76.5243C90.5661 76.6598 90.7695 76.8306 90.9213 77.0367V76.3942H92.0681V80.9H90.9213V80.2412C90.7749 80.4527 90.5716 80.6289 90.3113 80.7699C90.0565 80.9054 89.7609 80.9732 89.4248 80.9732C89.0452 80.9732 88.6982 80.8756 88.3837 80.6804C88.0746 80.4852 87.8279 80.2114 87.6436 79.859C87.4646 79.5011 87.3752 79.0917 87.3752 78.6308ZM90.9213 78.6471C90.9213 78.3706 90.8671 78.1347 90.7586 77.9395C90.6502 77.7389 90.5038 77.587 90.3194 77.484C90.1351 77.3756 89.9372 77.3214 89.7257 77.3214C89.5142 77.3214 89.319 77.3729 89.1401 77.4759C88.9612 77.5789 88.8148 77.7307 88.7009 77.9314C88.5925 78.1266 88.5382 78.3597 88.5382 78.6308C88.5382 78.9019 88.5925 79.1405 88.7009 79.3466C88.8148 79.5472 88.9612 79.7017 89.1401 79.8102C89.3245 79.9186 89.5197 79.9728 89.7257 79.9728C89.9372 79.9728 90.1351 79.9213 90.3194 79.8183C90.5038 79.7098 90.6502 79.558 90.7586 79.3628C90.8671 79.1622 90.9213 78.9236 90.9213 78.6471ZM95.1078 79.9972C95.5687 79.9972 95.8696 79.7912 96.0106 79.3791H97.2387C97.1249 79.8183 96.9134 80.1762 96.6043 80.4527C96.3007 80.7292 95.9184 80.8946 95.4575 80.9488V81.266C95.7558 81.266 96.0052 81.3419 96.2058 81.4938C96.4119 81.6456 96.5149 81.8652 96.5149 82.1526C96.5149 82.4454 96.4091 82.6704 96.1977 82.8276C95.9916 82.9849 95.7368 83.0635 95.4331 83.0635H94.2782V82.3966H95.2461C95.3762 82.3966 95.4738 82.3776 95.5389 82.3396C95.6094 82.3017 95.6446 82.2339 95.6446 82.1363C95.6446 82.0387 95.6094 81.9709 95.5389 81.933C95.4738 81.9004 95.3762 81.8842 95.2461 81.8842H94.7418V80.9488C94.3731 80.8946 94.0478 80.7672 93.7658 80.5666C93.4893 80.3605 93.2724 80.0948 93.1151 79.7695C92.9633 79.4387 92.8874 79.0646 92.8874 78.6471C92.8874 78.1808 92.9823 77.7741 93.1721 77.4271C93.3619 77.0746 93.6248 76.8035 93.961 76.6138C94.2972 76.4186 94.6822 76.321 95.1159 76.321C95.6744 76.321 96.1353 76.4619 96.4986 76.7439C96.8673 77.0204 97.114 77.4108 97.2387 77.9151H96.0106C95.9455 77.7199 95.8344 77.5681 95.6771 77.4596C95.5253 77.3458 95.3355 77.2888 95.1078 77.2888C94.7825 77.2888 94.5249 77.4081 94.3351 77.6467C94.1454 77.8798 94.0505 78.2133 94.0505 78.6471C94.0505 79.0754 94.1454 79.4089 94.3351 79.6475C94.5249 79.8806 94.7825 79.9972 95.1078 79.9972ZM100.074 80.9732C99.6399 80.9732 99.2495 80.8783 98.9025 80.6886C98.5555 80.4934 98.2817 80.2195 98.0811 79.8671C97.8859 79.5146 97.7883 79.108 97.7883 78.6471C97.7883 78.1862 97.8886 77.7795 98.0892 77.4271C98.2952 77.0746 98.5745 76.8035 98.9269 76.6138C99.2794 76.4186 99.6725 76.321 100.106 76.321C100.54 76.321 100.933 76.4186 101.286 76.6138C101.638 76.8035 101.915 77.0746 102.115 77.4271C102.321 77.7795 102.424 78.1862 102.424 78.6471C102.424 79.108 102.319 79.5146 102.107 79.8671C101.901 80.2195 101.619 80.4934 101.261 80.6886C100.909 80.8783 100.513 80.9732 100.074 80.9732ZM100.074 79.981C100.28 79.981 100.472 79.9322 100.651 79.8346C100.836 79.7315 100.982 79.5797 101.09 79.3791C101.199 79.1785 101.253 78.9345 101.253 78.6471C101.253 78.2187 101.139 77.8907 100.911 77.663C100.689 77.4298 100.415 77.3132 100.09 77.3132C99.7647 77.3132 99.4908 77.4298 99.2685 77.663C99.0516 77.8907 98.9432 78.2187 98.9432 78.6471C98.9432 79.0754 99.0489 79.4062 99.2604 79.6394C99.4773 79.8671 99.7484 79.981 100.074 79.981ZM98.6911 75.9062C98.7399 75.5483 98.851 75.2826 99.0245 75.1091C99.2035 74.9302 99.4285 74.8407 99.6996 74.8407C99.8135 74.8407 99.9138 74.8597 100.001 74.8976C100.087 74.9302 100.185 74.979 100.293 75.044C100.456 75.147 100.592 75.1986 100.7 75.1986C100.901 75.1986 101.017 75.082 101.05 74.8488H101.66C101.611 75.2067 101.497 75.4751 101.318 75.654C101.145 75.8275 100.922 75.9143 100.651 75.9143C100.537 75.9143 100.437 75.898 100.35 75.8655C100.263 75.8275 100.166 75.776 100.057 75.711C99.9002 75.6025 99.7647 75.5483 99.6508 75.5483C99.4502 75.5483 99.3309 75.6676 99.2929 75.9062H98.6911ZM107.448 78.5495C107.448 78.7122 107.437 78.8586 107.416 78.9887H104.122C104.149 79.314 104.263 79.5689 104.463 79.7532C104.664 79.9376 104.911 80.0298 105.203 80.0298C105.626 80.0298 105.927 79.8481 106.106 79.4848H107.334C107.204 79.9186 106.955 80.2765 106.586 80.5584C106.217 80.835 105.765 80.9732 105.228 80.9732C104.794 80.9732 104.404 80.8783 104.057 80.6886C103.715 80.4934 103.447 80.2195 103.251 79.8671C103.062 79.5146 102.967 79.108 102.967 78.6471C102.967 78.1808 103.062 77.7714 103.251 77.419C103.441 77.0665 103.707 76.7954 104.048 76.6056C104.39 76.4158 104.783 76.321 105.228 76.321C105.656 76.321 106.038 76.4131 106.375 76.5975C106.716 76.7818 106.979 77.0448 107.164 77.3864C107.353 77.7226 107.448 78.1103 107.448 78.5495ZM106.269 78.2242C106.263 77.9314 106.158 77.6982 105.952 77.5247C105.746 77.3458 105.493 77.2563 105.195 77.2563C104.913 77.2563 104.675 77.343 104.48 77.5166C104.29 77.6846 104.173 77.9205 104.13 78.2242H106.269ZM110.004 80.9732C109.635 80.9732 109.304 80.9082 109.011 80.778C108.718 80.6425 108.485 80.4608 108.312 80.2331C108.144 80.0054 108.052 79.7532 108.035 79.4767H109.182C109.204 79.6502 109.288 79.7939 109.434 79.9078C109.586 80.0216 109.773 80.0786 109.995 80.0786C110.212 80.0786 110.38 80.0352 110.5 79.9484C110.624 79.8617 110.687 79.7505 110.687 79.615C110.687 79.4686 110.611 79.3601 110.459 79.2896C110.313 79.2137 110.077 79.1324 109.751 79.0456C109.415 78.9643 109.139 78.8802 108.922 78.7935C108.71 78.7067 108.526 78.5739 108.369 78.395C108.217 78.216 108.141 77.9747 108.141 77.6711C108.141 77.4217 108.212 77.1939 108.352 76.9879C108.499 76.7818 108.705 76.6192 108.971 76.4999C109.242 76.3806 109.559 76.321 109.922 76.321C110.459 76.321 110.887 76.4565 111.207 76.7276C111.527 76.9933 111.703 77.3539 111.736 77.8094H110.646C110.63 77.6304 110.554 77.4894 110.418 77.3864C110.288 77.278 110.112 77.2238 109.89 77.2238C109.684 77.2238 109.524 77.2617 109.41 77.3376C109.301 77.4135 109.247 77.5193 109.247 77.6548C109.247 77.8066 109.323 77.9232 109.475 78.0046C109.627 78.0805 109.863 78.1591 110.182 78.2404C110.508 78.3218 110.776 78.4058 110.988 78.4926C111.199 78.5793 111.381 78.7149 111.533 78.8992C111.69 79.0782 111.771 79.3167 111.777 79.615C111.777 79.8752 111.703 80.1084 111.557 80.3144C111.416 80.5205 111.21 80.6831 110.939 80.8024C110.673 80.9163 110.361 80.9732 110.004 80.9732Z" fill="#3C3C3C"/>
<path d="M56 67.0845L53.6529 68.8653C53.5366 68.9598 53.4098 69.0046 53.2723 68.9996C53.1349 68.9945 53.0133 68.955 52.9076 68.881C52.8018 68.8075 52.72 68.7077 52.6621 68.5816C52.6041 68.4555 52.6014 68.319 52.6538 68.1719L53.5578 65.2564L51.2583 63.6332C51.1314 63.5492 51.0521 63.4389 51.0204 63.3023C50.9887 63.1657 50.994 63.0396 51.0362 62.9241C51.0785 62.8085 51.1525 62.7059 51.2583 62.6164C51.364 62.5269 51.4909 62.4824 51.6389 62.4828H54.4776L55.3974 59.457C55.4502 59.3099 55.5323 59.1969 55.6435 59.1179C55.7547 59.0389 55.8736 58.9996 56 59C56.1269 59 56.2459 59.0395 56.3571 59.1185C56.4684 59.1975 56.5502 59.3104 56.6026 59.457L57.5224 62.4828H60.3611C60.5091 62.4828 60.636 62.5276 60.7417 62.6171C60.8475 62.7066 60.9215 62.8089 60.9638 62.9241C61.006 63.0396 61.0113 63.1657 60.9796 63.3023C60.9479 63.4389 60.8686 63.5492 60.7417 63.6332L58.4422 65.2564L59.3462 68.1719C59.399 68.319 59.3965 68.4555 59.3386 68.5816C59.2806 68.7077 59.1986 68.8075 59.0924 68.881C58.9867 68.9546 58.8651 68.9941 58.7277 68.9996C58.5902 69.005 58.4634 68.9603 58.3471 68.8653L56 67.0845Z" fill="#F5C82A"/>
<path d="M69 67.0845L66.6529 68.8653C66.5366 68.9598 66.4098 69.0046 66.2723 68.9996C66.1349 68.9945 66.0133 68.955 65.9076 68.881C65.8018 68.8075 65.72 68.7077 65.6621 68.5816C65.6041 68.4555 65.6014 68.319 65.6538 68.1719L66.5578 65.2564L64.2583 63.6332C64.1314 63.5492 64.0521 63.4389 64.0204 63.3023C63.9887 63.1657 63.994 63.0396 64.0362 62.9241C64.0785 62.8085 64.1525 62.7059 64.2583 62.6164C64.364 62.5269 64.4909 62.4824 64.6389 62.4828H67.4776L68.3974 59.457C68.4502 59.3099 68.5323 59.1969 68.6435 59.1179C68.7547 59.0389 68.8736 58.9996 69 59C69.1269 59 69.2459 59.0395 69.3571 59.1185C69.4684 59.1975 69.5502 59.3104 69.6026 59.457L70.5224 62.4828H73.3611C73.5091 62.4828 73.636 62.5276 73.7417 62.6171C73.8475 62.7066 73.9215 62.8089 73.9638 62.9241C74.006 63.0396 74.0113 63.1657 73.9796 63.3023C73.9479 63.4389 73.8686 63.5492 73.7417 63.6332L71.4422 65.2564L72.3462 68.1719C72.399 68.319 72.3965 68.4555 72.3386 68.5816C72.2806 68.7077 72.1986 68.8075 72.0924 68.881C71.9867 68.9546 71.8651 68.9941 71.7277 68.9996C71.5902 69.005 71.4634 68.9603 71.3471 68.8653L69 67.0845Z" fill="#F5C82A"/>
<path d="M82 67.0845L79.6529 68.8653C79.5366 68.9598 79.4098 69.0046 79.2723 68.9996C79.1349 68.9945 79.0133 68.955 78.9076 68.881C78.8018 68.8075 78.72 68.7077 78.6621 68.5816C78.6041 68.4555 78.6014 68.319 78.6538 68.1719L79.5578 65.2564L77.2583 63.6332C77.1314 63.5492 77.0521 63.4389 77.0204 63.3023C76.9887 63.1657 76.994 63.0396 77.0362 62.9241C77.0785 62.8085 77.1525 62.7059 77.2583 62.6164C77.364 62.5269 77.4909 62.4824 77.6389 62.4828H80.4776L81.3974 59.457C81.4502 59.3099 81.5323 59.1969 81.6435 59.1179C81.7547 59.0389 81.8736 58.9996 82 59C82.1269 59 82.2459 59.0395 82.3571 59.1185C82.4684 59.1975 82.5502 59.3104 82.6026 59.457L83.5224 62.4828H86.3611C86.5091 62.4828 86.636 62.5276 86.7417 62.6171C86.8475 62.7066 86.9215 62.8089 86.9638 62.9241C87.006 63.0396 87.0113 63.1657 86.9796 63.3023C86.9479 63.4389 86.8686 63.5492 86.7417 63.6332L84.4422 65.2564L85.3462 68.1719C85.399 68.319 85.3965 68.4555 85.3386 68.5816C85.2806 68.7077 85.1986 68.8075 85.0924 68.881C84.9867 68.9546 84.8651 68.9941 84.7277 68.9996C84.5902 69.005 84.4634 68.9603 84.3471 68.8653L82 67.0845Z" fill="#F5C82A"/>
<path d="M95 67.0845L92.6529 68.8653C92.5366 68.9598 92.4098 69.0046 92.2723 68.9996C92.1349 68.9945 92.0133 68.955 91.9076 68.881C91.8018 68.8075 91.72 68.7077 91.6621 68.5816C91.6041 68.4555 91.6014 68.319 91.6538 68.1719L92.5578 65.2564L90.2583 63.6332C90.1314 63.5492 90.0521 63.4389 90.0204 63.3023C89.9887 63.1657 89.994 63.0396 90.0362 62.9241C90.0785 62.8085 90.1525 62.7059 90.2583 62.6164C90.364 62.5269 90.4909 62.4824 90.6389 62.4828H93.4776L94.3974 59.457C94.4502 59.3099 94.5323 59.1969 94.6435 59.1179C94.7547 59.0389 94.8736 58.9996 95 59C95.1269 59 95.2459 59.0395 95.3571 59.1185C95.4684 59.1975 95.5502 59.3104 95.6026 59.457L96.5224 62.4828H99.3611C99.5091 62.4828 99.636 62.5276 99.7417 62.6171C99.8475 62.7066 99.9215 62.8089 99.9638 62.9241C100.006 63.0396 100.011 63.1657 99.9796 63.3023C99.9479 63.4389 99.8686 63.5492 99.7417 63.6332L97.4422 65.2564L98.3462 68.1719C98.399 68.319 98.3965 68.4555 98.3386 68.5816C98.2806 68.7077 98.1986 68.8075 98.0924 68.881C97.9867 68.9546 97.8651 68.9941 97.7277 68.9996C97.5902 69.005 97.4634 68.9603 97.3471 68.8653L95 67.0845Z" fill="#F5C82A"/>
<path d="M112.468 62.3469L109.641 62.0903L108.537 59.3712C108.338 58.8763 107.66 58.8763 107.462 59.3712L106.357 62.0964L103.536 62.3469C103.022 62.3897 102.811 63.0618 103.203 63.4162L105.347 65.3593L104.704 68.2434C104.587 68.7688 105.131 69.1843 105.575 68.9033L107.999 67.3757L110.424 68.9094C110.868 69.1904 111.411 68.775 111.294 68.2495L110.652 65.3593L112.796 63.4162C113.187 63.0618 112.983 62.3897 112.468 62.3469ZM107.999 66.2331V60.5505L108.998 63.019L111.557 63.2512L109.617 65.011L110.202 67.6262L107.999 66.2331Z" fill="#F5C82A"/>
<defs>
<linearGradient id="paint0_linear_19_80" x1="24.0358" y1="33.6371" x2="6.00046" y2="15.1393" gradientUnits="userSpaceOnUse">
<stop stop-color="#00A0FF"/>
<stop offset="0.0066" stop-color="#00A1FF"/>
<stop offset="0.2601" stop-color="#00BEFF"/>
<stop offset="0.5122" stop-color="#00D2FF"/>
<stop offset="0.7604" stop-color="#00DFFF"/>
<stop offset="1" stop-color="#00E3FF"/>
</linearGradient>
<linearGradient id="paint1_linear_19_80" x1="37.3049" y1="21.4985" x2="10.6263" y2="21.4985" gradientUnits="userSpaceOnUse">
<stop stop-color="#FFE000"/>
<stop offset="0.4087" stop-color="#FFBD00"/>
<stop offset="0.7754" stop-color="#FFA500"/>
<stop offset="1" stop-color="#FF9C00"/>
</linearGradient>
<linearGradient id="paint2_linear_19_80" x1="27.3735" y1="19.0317" x2="2.91614" y2="-6.05274" gradientUnits="userSpaceOnUse">
<stop stop-color="#FF3A44"/>
<stop offset="1" stop-color="#C31162"/>
</linearGradient>
<linearGradient id="paint3_linear_19_80" x1="8.04586" y1="42.8106" x2="18.9672" y2="31.6094" gradientUnits="userSpaceOnUse">
<stop stop-color="#32A071"/>
<stop offset="0.0685" stop-color="#2DA771"/>
<stop offset="0.4762" stop-color="#15CF74"/>
<stop offset="0.8009" stop-color="#06E775"/>
<stop offset="1" stop-color="#00F076"/>
</linearGradient>
</defs>
</svg>
