<svg width="27" height="27" viewBox="0 0 27 27" fill="none" xmlns="http://www.w3.org/2000/svg">
<circle cx="13.5" cy="13.5" r="13.5" fill="#9A3CEB" fill-opacity="0.2"/>
<path d="M12.9572 15.6375C12.6422 15.6375 12.3765 15.5259 12.1602 15.3028C11.9439 15.0797 11.8486 14.8172 11.8743 14.5153C11.9137 13.9641 12.045 13.485 12.2681 13.0781C12.4912 12.6712 12.8456 12.2512 13.3312 11.8181C13.8693 11.3456 14.2796 10.9353 14.5621 10.5873C14.8445 10.2392 14.9855 9.84229 14.985 9.39656C14.985 8.85844 14.8046 8.41219 14.444 8.05781C14.0833 7.70344 13.5811 7.52625 12.9375 7.52625C12.5175 7.52625 12.1597 7.61497 11.8641 7.79242C11.5685 7.96987 11.3291 8.18959 11.1459 8.45156C10.9622 8.71406 10.7359 8.89125 10.4671 8.98312C10.1983 9.075 9.93893 9.06844 9.68903 8.96344C9.38715 8.83219 9.18056 8.61562 9.06926 8.31375C8.95796 8.01187 8.9808 7.72969 9.13778 7.46719C9.5184 6.87656 10.0303 6.38437 10.6734 5.99063C11.3165 5.59688 12.0712 5.4 12.9375 5.4C14.3156 5.4 15.3756 5.78377 16.1174 6.55132C16.8592 7.31887 17.2299 8.24104 17.2293 9.31781C17.2293 9.97406 17.0884 10.5353 16.8065 11.0015C16.5245 11.4677 16.0814 11.9958 15.4772 12.5859C15.0309 13.0059 14.7159 13.3472 14.5322 13.6097C14.3484 13.8722 14.2237 14.1741 14.1581 14.5153C14.1056 14.8434 13.9678 15.1125 13.7447 15.3225C13.5215 15.5325 13.259 15.6375 12.9572 15.6375ZM12.9375 20.3625C12.5043 20.3625 12.1334 20.2081 11.8247 19.8994C11.516 19.5907 11.3619 19.2201 11.3625 18.7875C11.3625 18.3544 11.5168 17.9835 11.8255 17.6748C12.1342 17.3661 12.5049 17.212 12.9375 17.2125C13.3706 17.2125 13.7415 17.3668 14.0502 17.6755C14.3589 17.9842 14.513 18.3549 14.5125 18.7875C14.5125 19.2206 14.3581 19.5915 14.0494 19.9002C13.7407 20.2089 13.3701 20.363 12.9375 20.3625Z" fill="#9A3CEB"/>
</svg>
