<svg width="58" height="58" viewBox="0 0 58 58" fill="none" xmlns="http://www.w3.org/2000/svg">
<path d="M51.6618 47.429C48.2546 41.5384 43.0038 37.3145 36.8761 35.3122C39.9071 33.5078 42.2621 30.7583 43.5793 27.486C44.8964 24.2136 45.103 20.5994 44.1673 17.1983C43.2316 13.7971 41.2053 10.7972 38.3996 8.65919C35.5939 6.52115 32.1639 5.36322 28.6364 5.36322C25.1089 5.36322 21.679 6.52115 18.8733 8.65919C16.0676 10.7972 14.0413 13.7971 13.1055 17.1983C12.1698 20.5994 12.3764 24.2136 13.6936 27.486C15.0108 30.7583 17.3657 33.5078 20.3968 35.3122C14.269 37.3123 9.01828 41.5361 5.611 47.429C5.48605 47.6327 5.40317 47.8594 5.36725 48.0957C5.33133 48.332 5.3431 48.5731 5.40187 48.8047C5.46064 49.0364 5.56521 49.254 5.70942 49.4445C5.85362 49.6351 6.03454 49.7949 6.2415 49.9145C6.44846 50.034 6.67726 50.1109 6.91442 50.1406C7.15157 50.1703 7.39226 50.1521 7.6223 50.0873C7.85234 50.0225 8.06706 49.9122 8.25379 49.763C8.44053 49.6138 8.59549 49.4288 8.70954 49.2187C12.9245 41.9344 20.3744 37.5852 28.6364 37.5852C36.8985 37.5852 44.3484 41.9344 48.5633 49.2187C48.6774 49.4288 48.8323 49.6138 49.0191 49.763C49.2058 49.9122 49.4205 50.0225 49.6505 50.0873C49.8806 50.1521 50.1213 50.1703 50.3584 50.1406C50.5956 50.1109 50.8244 50.034 51.0313 49.9145C51.2383 49.7949 51.4192 49.6351 51.5634 49.4445C51.7076 49.254 51.8122 49.0364 51.871 48.8047C51.9297 48.5731 51.9415 48.332 51.9056 48.0957C51.8697 47.8594 51.7868 47.6327 51.6618 47.429ZM16.108 21.4773C16.108 18.9994 16.8428 16.5771 18.2194 14.5169C19.5961 12.4566 21.5527 10.8508 23.842 9.90252C26.1313 8.95427 28.6503 8.70617 31.0806 9.18958C33.5109 9.67299 35.7432 10.8662 37.4953 12.6183C39.2475 14.3705 40.4407 16.6028 40.9241 19.0331C41.4075 21.4634 41.1594 23.9824 40.2112 26.2717C39.2629 28.5609 37.6571 30.5176 35.5968 31.8943C33.5365 33.2709 31.1143 34.0057 28.6364 34.0057C25.3148 34.0021 22.1302 32.681 19.7814 30.3323C17.4327 27.9835 16.1116 24.7989 16.108 21.4773Z" fill="#FF00AC"/>
</svg>
