<svg width="59" height="58" viewBox="0 0 59 58" fill="none" xmlns="http://www.w3.org/2000/svg">
<path d="M26.7944 24.1381C27.5021 24.8441 28.461 25.2406 29.4606 25.2406C30.4603 25.2406 31.4192 24.8441 32.1269 24.1381L39.1745 17.0882C39.5245 16.7383 39.8022 16.3228 39.9917 15.8655C40.1811 15.4082 40.2787 14.9181 40.2787 14.4231C40.2787 13.9281 40.1811 13.438 39.9917 12.9807C39.8022 12.5234 39.5245 12.1079 39.1745 11.758L32.1269 4.70816C31.4192 4.00213 30.4603 3.60562 29.4606 3.60562C28.461 3.60562 27.5021 4.00213 26.7944 4.70816L19.7468 11.758C19.3967 12.1079 19.119 12.5234 18.9296 12.9807C18.7401 13.438 18.6426 13.9281 18.6426 14.4231C18.6426 14.9181 18.7401 15.4082 18.9296 15.8655C19.119 16.3228 19.3967 16.7383 19.7468 17.0882L26.7944 24.1381ZM22.2868 14.307L29.3367 7.25945C29.3666 7.22972 29.4071 7.21304 29.4494 7.21304C29.4916 7.21304 29.5321 7.22972 29.5621 7.25945L36.6119 14.307C36.6401 14.3378 36.6557 14.378 36.6557 14.4197C36.6557 14.4615 36.6401 14.5017 36.6119 14.5324L29.5756 21.589C29.5453 21.6182 29.5049 21.6345 29.4629 21.6345C29.4208 21.6345 29.3804 21.6182 29.3502 21.589L22.2958 14.5392C22.2657 14.5081 22.2488 14.4664 22.2488 14.4231C22.2488 14.3798 22.2657 14.3382 22.2958 14.307H22.2868ZM53.5919 26.1822L46.5511 19.1324C45.8438 18.4265 44.8853 18.0301 43.886 18.0301C42.8867 18.0301 41.9282 18.4265 41.2209 19.1324L34.171 26.1822C33.465 26.89 33.0685 27.8488 33.0685 28.8485C33.0685 29.8481 33.465 30.807 34.171 31.5147L41.2209 38.5646C41.9282 39.2705 42.8867 39.6669 43.886 39.6669C44.8853 39.6669 45.8438 39.2705 46.5511 38.5646L53.601 31.5147C54.307 30.807 54.7035 29.8481 54.7035 28.8485C54.7035 27.8488 54.307 26.89 53.601 26.1822H53.5919ZM51.0519 28.9634L44.0021 36.0133C43.9713 36.0415 43.9311 36.0571 43.8894 36.0571C43.8477 36.0571 43.8074 36.0415 43.7767 36.0133L36.7268 28.9634C36.6977 28.9332 36.6813 28.8928 36.6813 28.8507C36.6813 28.8087 36.6977 28.7683 36.7268 28.738L43.7767 21.6882C43.8074 21.66 43.8477 21.6444 43.8894 21.6444C43.9311 21.6444 43.9713 21.66 44.0021 21.6882L51.0519 28.738C51.0811 28.7683 51.0974 28.8087 51.0974 28.8507C51.0974 28.8928 51.0811 28.9332 51.0519 28.9634ZM24.7502 26.1822L17.7004 19.1324C16.993 18.4265 16.0346 18.0301 15.0353 18.0301C14.036 18.0301 13.0775 18.4265 12.3702 19.1324L5.32031 26.1822C4.61428 26.89 4.21777 27.8488 4.21777 28.8485C4.21777 29.8481 4.61428 30.807 5.32031 31.5147L12.3702 38.5646C13.0775 39.2705 14.036 39.6669 15.0353 39.6669C16.0346 39.6669 16.993 39.2705 17.7004 38.5646L24.7502 31.5147C25.4562 30.807 25.8528 29.8481 25.8528 28.8485C25.8528 27.8488 25.4562 26.89 24.7502 26.1822ZM22.2012 28.9634L15.1513 36.0133C15.1206 36.0415 15.0804 36.0571 15.0386 36.0571C14.9969 36.0571 14.9567 36.0415 14.926 36.0133L7.86935 28.9634C7.84015 28.9332 7.82384 28.8928 7.82384 28.8507C7.82384 28.8087 7.84015 28.7683 7.86935 28.738L14.9192 21.6837C14.95 21.6555 14.9902 21.6399 15.0319 21.6399C15.0736 21.6399 15.1138 21.6555 15.1446 21.6837L22.1944 28.7335C22.21 28.7482 22.2225 28.7657 22.2313 28.7852C22.2401 28.8047 22.2449 28.8257 22.2456 28.8471C22.2462 28.8684 22.2426 28.8897 22.235 28.9097C22.2274 28.9296 22.2159 28.9479 22.2012 28.9634ZM32.1178 33.5589C31.4101 32.8529 30.4513 32.4564 29.4516 32.4564C28.4519 32.4564 27.4931 32.8529 26.7854 33.5589L19.7468 40.6087C19.3967 40.9587 19.119 41.3742 18.9296 41.8315C18.7401 42.2887 18.6426 42.7789 18.6426 43.2738C18.6426 43.7688 18.7401 44.259 18.9296 44.7162C19.119 45.1735 19.3967 45.589 19.7468 45.939L26.7944 52.9888C27.5021 53.6948 28.461 54.0913 29.4606 54.0913C30.4603 54.0913 31.4192 53.6948 32.1269 52.9888L39.1745 45.939C39.5245 45.589 39.8022 45.1735 39.9917 44.7162C40.1811 44.259 40.2787 43.7688 40.2787 43.2738C40.2787 42.7789 40.1811 42.2887 39.9917 41.8315C39.8022 41.3742 39.5245 40.9587 39.1745 40.6087L32.1178 33.5589ZM36.6254 43.3899L29.5756 50.4375C29.5456 50.4672 29.5051 50.4839 29.4629 50.4839C29.4207 50.4839 29.3802 50.4672 29.3502 50.4375L22.2958 43.3899C22.2676 43.3592 22.252 43.319 22.252 43.2772C22.252 43.2355 22.2676 43.1953 22.2958 43.1645L29.3457 36.1147C29.3759 36.0855 29.4163 36.0692 29.4584 36.0692C29.5004 36.0692 29.5408 36.0855 29.5711 36.1147L36.6209 43.1645C36.6497 43.1947 36.6662 43.2346 36.667 43.2764C36.6678 43.3181 36.653 43.3586 36.6254 43.3899Z" fill="#FF00AC"/>
</svg>
