<svg width="59" height="58" viewBox="0 0 59 58" fill="none" xmlns="http://www.w3.org/2000/svg">
<g clip-path="url(#clip0_17_330)">
<path d="M39.2885 15.4147C38.4598 14.346 37.3329 13.5471 36.0502 13.1189L32.7374 12.0419C32.4831 11.9513 32.263 11.7843 32.1074 11.5637C31.9518 11.3431 31.8682 11.0798 31.8682 10.8098C31.8682 10.5398 31.9518 10.2765 32.1074 10.0559C32.263 9.83528 32.4831 9.66825 32.7374 9.57772L34.4443 9.02239L34.4371 9.01998L36.0478 8.4959C37.0295 8.1609 37.9214 7.60531 38.6549 6.87183C39.3883 6.13835 39.9439 5.2465 40.2789 4.26479L40.3054 4.18305L41.3824 0.872692C41.4719 0.616694 41.6388 0.394864 41.86 0.23791C42.0812 0.0809562 42.3456 -0.00335693 42.6168 -0.00335693C42.8881 -0.00335693 43.1525 0.0809562 43.3737 0.23791C43.5949 0.394864 43.7618 0.616694 43.8513 0.872692L44.9259 4.18305C45.261 5.1897 45.8265 6.10422 46.5773 6.85379C47.3281 7.60337 48.2436 8.16731 49.2508 8.50071L52.5612 9.57772L52.6285 9.59455C52.8828 9.68508 53.1029 9.85211 53.2585 10.0727C53.4142 10.2933 53.4977 10.5567 53.4977 10.8266C53.4977 11.0966 53.4142 11.3599 53.2585 11.5805C53.1029 11.8011 52.8828 11.9682 52.6285 12.0587L49.3157 13.1357C48.8971 13.2742 48.493 13.4529 48.1089 13.6694L48.1185 13.6814C47.0462 14.2855 46.1573 15.1686 45.5462 16.2369L45.539 16.2297C45.3171 16.6194 45.1343 17.0301 44.9932 17.4558L43.9162 20.7637C43.8262 21.0189 43.6592 21.2398 43.4384 21.3961C43.2175 21.5524 42.9535 21.6363 42.683 21.6363C42.4124 21.6363 42.1485 21.5524 41.9276 21.3961C41.7067 21.2398 41.5397 21.0189 41.4497 20.7637L40.3727 17.4534C40.1305 16.7173 39.7647 16.0279 39.2909 15.4147H39.2885ZM57.7876 24.5525L55.9461 23.9563C55.387 23.77 54.8791 23.4559 54.4626 23.039C54.0461 22.6221 53.7326 22.1139 53.5468 21.5546L52.9458 19.718C52.896 19.576 52.8034 19.4529 52.6806 19.3659C52.5579 19.2788 52.4111 19.2321 52.2607 19.2321C52.1102 19.2321 51.9634 19.2788 51.8407 19.3659C51.7179 19.4529 51.6253 19.576 51.5755 19.718L50.9793 21.5546C50.6851 22.451 50.067 23.2054 49.246 23.6702H49.2364V23.675C49.0376 23.7872 48.8293 23.8813 48.6137 23.9563L46.7746 24.5525C46.6326 24.6023 46.5096 24.6949 46.4226 24.8177C46.3355 24.9404 46.2888 25.0872 46.2888 25.2376C46.2888 25.3881 46.3355 25.5349 46.4226 25.6576C46.5096 25.7804 46.6326 25.873 46.7746 25.9228L48.6137 26.5214C49.1727 26.7079 49.6805 27.022 50.097 27.4389C50.5134 27.8557 50.827 28.3639 51.013 28.923L51.6116 30.7621C51.6604 30.9068 51.7538 31.0322 51.8784 31.1203C51.9703 31.1855 52.076 31.2284 52.1873 31.2457C52.2986 31.263 52.4123 31.2541 52.5196 31.2198C52.6269 31.1855 52.7247 31.1268 52.8054 31.0482C52.886 30.9696 52.9473 30.8733 52.9843 30.7669L53.5829 28.9302C53.7687 28.3707 54.0826 27.8622 54.4995 27.4452C54.9164 27.0283 55.4249 26.7144 55.9845 26.5286L57.8236 25.9324C57.9656 25.8826 58.0886 25.79 58.1757 25.6672C58.2627 25.5445 58.3095 25.3977 58.3095 25.2473C58.3095 25.0968 58.2627 24.95 58.1757 24.8273C58.0886 24.7045 57.9656 24.6119 57.8236 24.5621L57.7876 24.5525ZM50.4889 33.0844C50.144 32.839 49.8522 32.5267 49.6306 32.1661C48.9909 36.0504 47.2428 39.6673 44.5967 42.582C41.9506 45.4966 38.5189 47.585 34.7143 48.596C30.9097 49.6071 26.894 49.4978 23.1501 48.2812C19.4061 47.0647 16.0931 44.7927 13.6095 41.7384C11.1258 38.6841 9.57718 34.9775 9.14969 31.0641C8.72219 27.1507 9.43405 23.1971 11.1997 19.6786C12.9653 16.1601 15.7096 13.2265 19.1027 11.2303C22.4957 9.23413 26.393 8.26041 30.3262 8.42619C30.7674 7.90171 31.3447 7.50908 31.9946 7.29148L35.2641 6.22889C35.6007 6.1135 35.9204 5.95724 36.2185 5.76732C34.0232 5.12677 31.7476 4.80296 29.4607 4.8057C16.1808 4.8033 5.41553 15.5686 5.41553 28.8461C5.41553 42.126 16.1808 52.8913 29.4607 52.8913C41.1203 52.8913 50.8447 44.5902 53.0396 33.5724C52.6043 33.6787 52.1512 33.6901 51.7111 33.6059C51.271 33.5217 50.8542 33.3439 50.4889 33.0844ZM29.4607 39.6715C27.8217 39.6734 26.2038 39.3021 24.7297 38.5856C23.2556 37.8692 21.964 36.8265 20.9528 35.5365C20.6564 35.161 20.2228 34.9186 19.7476 34.8627C19.2725 34.8068 18.7945 34.942 18.419 35.2384C18.0434 35.5349 17.8011 35.9684 17.7452 36.4436C17.6892 36.9188 17.8244 37.3968 18.1209 37.7723C19.4702 39.4892 21.1923 40.8768 23.1569 41.8301C25.1214 42.7834 27.2771 43.2776 29.4607 43.2752C33.9323 43.2752 38.0672 41.2221 40.7886 37.7819C40.9354 37.596 41.0441 37.3829 41.1086 37.155C41.1731 36.927 41.192 36.6885 41.1643 36.4533C41.1366 36.218 41.0629 35.9904 40.9473 35.7836C40.8316 35.5769 40.6764 35.3949 40.4905 35.2481C40.3045 35.1013 40.0915 34.9925 39.8635 34.9281C39.6355 34.8636 39.3971 34.8447 39.1618 34.8723C38.9265 34.9 38.699 34.9738 38.4922 35.0894C38.2854 35.205 38.1034 35.3602 37.9566 35.5462C36.9454 36.8322 35.6552 37.8715 34.1834 38.5858C32.7116 39.3 31.0967 39.6704 29.4607 39.6691V39.6715ZM25.2537 24.0404C25.2537 23.2434 24.9371 22.4791 24.3735 21.9155C23.81 21.352 23.0456 21.0354 22.2486 21.0354C21.4516 21.0354 20.6873 21.352 20.1237 21.9155C19.5602 22.4791 19.2436 23.2434 19.2436 24.0404C19.2436 24.8374 19.5602 25.6018 20.1237 26.1653C20.6873 26.7289 21.4516 27.0455 22.2486 27.0455C23.0456 27.0455 23.81 26.7289 24.3735 26.1653C24.9371 25.6018 25.2537 24.8374 25.2537 24.0404ZM39.6779 24.0404C39.6779 23.2434 39.3613 22.4791 38.7978 21.9155C38.2342 21.352 37.4698 21.0354 36.6729 21.0354C35.8759 21.0354 35.1115 21.352 34.548 21.9155C33.9844 22.4791 33.6678 23.2434 33.6678 24.0404C33.6678 24.8374 33.9844 25.6018 34.548 26.1653C35.1115 26.7289 35.8759 27.0455 36.6729 27.0455C37.4698 27.0455 38.2342 26.7289 38.7978 26.1653C39.3613 25.6018 39.6779 24.8374 39.6779 24.0404Z" fill="#FF00AC"/>
</g>
<defs>
<clipPath id="clip0_17_330">
<rect width="57.697" height="57.697" fill="white" transform="translate(0.611816)"/>
</clipPath>
</defs>
</svg>
