<svg width="40" height="40" viewBox="0 0 40 40" fill="none" xmlns="http://www.w3.org/2000/svg">
<path d="M10 15V12.0834C10 6.40835 14.1717 1.66669 20 1.66669C25.8283 1.66669 30 6.40835 30 12.0834V15H30.8333C31.9384 15 32.9982 15.439 33.7796 16.2204C34.561 17.0018 35 18.0616 35 19.1667V32.5C35 33.6051 34.561 34.6649 33.7796 35.4463C32.9982 36.2277 31.9384 36.6667 30.8333 36.6667H9.16667C8.0616 36.6667 7.00179 36.2277 6.22039 35.4463C5.43899 34.6649 5 33.6051 5 32.5V19.1667C5 18.0616 5.43899 17.0018 6.22039 16.2204C7.00179 15.439 8.0616 15 9.16667 15H10ZM7.5 19.1667V32.5C7.5 32.942 7.6756 33.366 7.98816 33.6785C8.30072 33.9911 8.72464 34.1667 9.16667 34.1667H30.8333C31.2754 34.1667 31.6993 33.9911 32.0118 33.6785C32.3244 33.366 32.5 32.942 32.5 32.5V19.1667C32.5 18.7247 32.3244 18.3007 32.0118 17.9882C31.6993 17.6756 31.2754 17.5 30.8333 17.5H9.16667C8.72464 17.5 8.30072 17.6756 7.98816 17.9882C7.6756 18.3007 7.5 18.7247 7.5 19.1667ZM12.5 12.0834V15H27.5V12.0834C27.5 7.63335 24.2967 4.16669 20 4.16669C15.7033 4.16669 12.5 7.63335 12.5 12.0834Z" fill="white"/>
</svg>
