<svg width="40" height="40" viewBox="0 0 40 40" fill="none" xmlns="http://www.w3.org/2000/svg">
<path d="M36.2345 33.125C33.9021 29.1071 30.1687 26.0914 25.7501 24.6562C27.868 23.3968 29.5139 21.4768 30.4349 19.1913C31.3558 16.9058 31.5009 14.3811 30.8478 12.0051C30.1947 9.62908 28.7796 7.53322 26.8199 6.03947C24.8602 4.54571 22.4642 3.73669 20.0001 3.73669C17.536 3.73669 15.14 4.54571 13.1803 6.03947C11.2206 7.53322 9.80549 9.62908 9.15242 12.0051C8.49935 14.3811 8.64443 16.9058 9.56537 19.1913C10.4863 21.4768 12.1322 23.3968 14.2501 24.6562C9.83151 26.0914 6.09813 29.1071 3.76574 33.125C3.66791 33.2669 3.60049 33.4275 3.56772 33.5968C3.53495 33.766 3.53753 33.9402 3.57531 34.1084C3.61309 34.2765 3.68525 34.4351 3.78725 34.5741C3.88924 34.713 4.01888 34.8294 4.16801 34.9158C4.31714 35.0023 4.48253 35.057 4.65381 35.0764C4.82508 35.0959 4.99853 35.0797 5.16325 35.0289C5.32797 34.9781 5.48041 34.8938 5.61098 34.7813C5.74155 34.6687 5.84744 34.5304 5.92199 34.375C7.35071 31.9062 9.40352 29.8565 11.8745 28.4316C14.3455 27.0067 17.1477 26.2566 20.0001 26.2566C22.8525 26.2566 25.6547 27.0067 28.1257 28.4316C30.5967 29.8565 32.6495 31.9062 34.0782 34.375C34.1528 34.5304 34.2587 34.6687 34.3892 34.7813C34.5198 34.8938 34.6722 34.9781 34.837 35.0289C35.0017 35.0797 35.1751 35.0959 35.3464 35.0764C35.5177 35.057 35.6831 35.0023 35.8322 34.9158C35.9813 34.8294 36.111 34.713 36.213 34.5741C36.315 34.4351 36.3871 34.2765 36.4249 34.1084C36.4627 33.9402 36.4653 33.766 36.4325 33.5968C36.3997 33.4275 36.3323 33.2669 36.2345 33.125ZM11.2501 15C11.2501 13.2694 11.7633 11.5777 12.7248 10.1387C13.6862 8.69981 15.0528 7.5783 16.6516 6.91604C18.2505 6.25377 20.0098 6.08049 21.7072 6.41811C23.4045 6.75573 24.9636 7.58909 26.1873 8.8128C27.411 10.0365 28.2444 11.5956 28.582 13.2929C28.9196 14.9903 28.7463 16.7496 28.0841 18.3485C27.4218 19.9473 26.3003 21.3139 24.8614 22.2753C23.4224 23.2368 21.7307 23.75 20.0001 23.75C17.6795 23.75 15.4539 22.8281 13.8129 21.1872C12.172 19.5462 11.2501 17.3206 11.2501 15Z" fill="white"/>
</svg>
